<?xml version="1.0" standalone="no"?>
<!DOCTYPE svg PUBLIC "-//W3C//DTD SVG 20010904//EN"
 "http://www.w3.org/TR/2001/REC-SVG-20010904/DTD/svg10.dtd">
<svg version="1.0" xmlns="http://www.w3.org/2000/svg"
 width="384.000000pt" height="369.000000pt" viewBox="0 0 384.000000 369.000000"
 preserveAspectRatio="xMidYMid meet">

<g transform="translate(0.000000,369.000000) scale(0.100000,-0.100000)"
fill="#000000" stroke="none">
<path d="M3130 3610 c-14 -10 -25 -27 -25 -37 0 -12 -8 -18 -22 -19 -13 -1
-32 -12 -42 -25 -23 -27 -25 -35 -11 -44 13 -8 13 -25 -1 -25 -6 0 -13 9 -16
20 -8 31 -23 23 -23 -12 0 -18 -4 -28 -8 -21 -4 6 -19 9 -35 6 l-28 -6 22 -23
c16 -17 29 -22 43 -18 34 10 65 45 72 80 3 18 13 39 23 46 14 11 14 11 3 -3
-11 -14 -9 -17 10 -22 18 -5 20 -9 10 -19 -6 -6 -12 -24 -12 -39 0 -30 -15
-47 -23 -27 -3 7 -6 3 -6 -9 -1 -13 5 -23 12 -23 22 0 37 23 37 57 0 25 5 36
23 42 12 5 32 23 45 40 20 28 21 33 8 46 -20 20 -26 19 -26 -6 0 -26 -17 -59
-31 -59 -6 0 -7 9 -3 23 4 12 8 33 9 45 1 13 8 28 16 32 7 5 11 11 9 14 -3 2
-16 -4 -30 -14z"/>
<path d="M3181 3512 c-13 -24 -14 -52 -3 -52 4 0 16 10 26 21 16 19 16 23 3
36 -13 14 -16 13 -26 -5z"/>
<path d="M1162 3501 c-11 -7 -11 -9 2 -14 10 -4 16 -1 16 8 0 17 -1 17 -18 6z"/>
<path d="M1084 3448 c-71 -53 -83 -69 -72 -94 13 -28 32 -21 22 8 -4 13 2 28
17 44 31 33 42 30 34 -8 -12 -59 -16 -67 -37 -73 -14 -5 -17 -10 -9 -18 6 -6
11 -17 11 -24 0 -24 -18 -14 -39 22 -14 23 -25 33 -36 29 -22 -9 -18 -33 8
-43 22 -9 21 -9 -8 -22 l-30 -13 28 -4 c23 -3 26 -6 16 -18 -13 -16 -55 -19
-64 -4 -4 6 -1 17 5 25 12 15 5 55 -11 55 -5 0 -9 -9 -9 -20 0 -13 -12 -28
-30 -38 -16 -9 -30 -25 -30 -34 0 -20 20 -25 20 -5 0 6 7 3 16 -8 8 -11 12
-25 10 -32 -3 -7 1 -13 9 -13 7 0 16 -8 19 -17 3 -10 3 0 1 22 -4 38 -3 39 9
16 8 -14 22 -28 32 -31 16 -6 14 -10 -13 -38 -34 -36 -48 -39 -61 -16 -7 13
-11 14 -17 3 -6 -8 -1 -18 13 -27 26 -17 28 -37 6 -46 -9 -3 -17 -6 -19 -6 -2
0 -6 18 -10 40 -7 42 -20 49 -56 30 -17 -10 -18 -13 -4 -26 17 -17 20 -60 5
-69 -5 -3 -10 -1 -10 5 0 9 -20 30 -67 70 -21 17 -30 11 -25 -15 3 -16 11 -25
23 -25 24 0 33 -18 19 -35 -10 -12 -10 -18 0 -30 10 -12 10 -15 -4 -15 -20 0
-22 -39 -1 -46 12 -5 12 -10 3 -27 -9 -19 -9 -20 3 -10 8 6 25 9 39 6 23 -4
25 -9 22 -40 -3 -25 2 -43 17 -63 l21 -29 -27 -3 c-15 -2 -28 -8 -30 -15 -3
-7 4 -9 18 -6 17 5 20 3 14 -8 -5 -8 -17 -20 -27 -27 -16 -12 -17 -15 -2 -37
16 -25 16 -91 -1 -88 -5 1 -13 12 -17 25 -11 41 -9 167 4 188 10 15 9 23 -6
39 -20 22 -56 29 -56 11 0 -5 7 -7 15 -4 23 9 28 -21 9 -58 -9 -18 -19 -27
-21 -20 -6 17 -30 15 -37 -4 -9 -23 -7 -36 4 -29 6 3 10 -1 10 -9 0 -21 16
-20 30 2 10 14 11 13 6 -8 -3 -14 -6 -33 -6 -42 0 -24 -21 -23 -27 1 -2 10
-16 24 -29 30 -13 6 -24 16 -25 23 0 7 -4 3 -9 -9 -7 -16 -18 -23 -37 -24 -27
0 -74 -15 -63 -20 20 -8 68 -3 85 8 30 20 52 16 57 -12 5 -22 3 -25 -16 -19
-11 3 -25 7 -31 8 -15 2 -18 -46 -3 -55 18 -12 28 -11 28 1 0 6 -7 10 -15 10
-8 0 -15 7 -15 15 0 18 23 19 51 4 21 -11 18 -45 -5 -62 -8 -6 -8 -10 1 -13 9
-4 9 -13 2 -30 -5 -14 -9 -37 -9 -52 1 -54 39 49 40 106 0 48 2 52 24 52 31 0
40 -14 21 -30 -17 -14 -20 -40 -6 -40 5 0 12 6 14 13 4 9 8 9 16 -3 13 -18 5
-30 -20 -30 -10 0 -19 -6 -19 -14 0 -8 -5 -16 -12 -18 -16 -6 8 -58 38 -81
l24 -18 -6 33 c-3 18 -7 43 -10 55 -4 22 11 43 52 70 13 8 24 23 24 32 0 14
-2 14 -10 1 -7 -11 -10 -6 -10 20 1 19 7 44 15 54 18 23 21 71 4 60 -8 -5 -8
-1 0 13 7 14 7 23 -1 31 -11 11 -2 35 12 27 4 -3 10 14 12 38 4 36 1 46 -23
72 -16 17 -29 36 -29 43 0 15 -16 16 -25 1 -4 -5 0 -18 9 -28 20 -22 20 -31 2
-31 -27 0 -46 29 -37 53 5 14 5 30 0 40 -6 9 -7 17 -4 17 11 0 60 -35 73 -53
10 -13 17 -15 26 -8 9 7 16 7 24 -1 9 -9 12 -8 12 5 0 10 -8 17 -19 17 -10 0
-21 8 -25 18 -3 9 -11 24 -17 33 -7 9 -9 25 -5 35 6 15 11 11 28 -24 12 -23
25 -42 30 -42 5 0 19 25 33 55 21 48 28 55 52 55 27 1 27 1 9 15 -11 8 -17 17
-14 20 13 13 100 17 128 5 27 -11 30 -16 25 -41 -4 -18 -2 -29 4 -29 6 0 11 9
11 19 0 11 4 22 9 25 5 4 7 -4 3 -16 -4 -17 -2 -20 12 -15 14 6 16 3 11 -13
-7 -24 10 -60 30 -60 7 0 16 -4 19 -8 7 -11 -5 -53 -13 -48 -4 3 -13 1 -21 -5
-11 -6 -4 -9 23 -9 20 0 37 -3 37 -7 0 -16 -40 -73 -50 -73 -6 0 -8 -5 -5 -10
5 -8 11 -7 21 1 8 6 16 10 17 8 17 -25 28 -59 23 -68 -12 -19 -39 -13 -34 7 4
13 -5 23 -33 36 -21 11 -41 27 -44 38 -4 10 -13 18 -21 18 -8 0 -14 5 -14 10
0 6 8 10 19 10 10 0 21 8 24 18 4 9 14 27 23 40 16 21 16 22 -9 22 -13 0 -30
7 -37 15 -15 18 -7 19 21 4 18 -9 19 -8 7 10 -17 27 -34 33 -50 17 -9 -8 -21
-10 -33 -5 -37 14 -40 8 -10 -16 23 -19 27 -27 18 -36 -9 -9 -20 -6 -49 16
-32 24 -35 25 -25 6 20 -37 54 -53 86 -41 18 7 32 7 38 1 13 -13 0 -31 -23
-31 -10 0 -20 -7 -24 -15 -8 -21 -38 -19 -34 2 2 13 -6 19 -32 23 -49 8 -67
20 -49 31 10 6 10 9 2 9 -21 0 -25 -21 -7 -41 16 -18 16 -19 -3 -19 -18 0 -20
-5 -16 -57 6 -94 6 -93 20 -81 9 7 20 6 38 -6 30 -20 49 -20 65 -1 11 13 8 14
-17 9 -20 -4 -33 -1 -42 10 -12 14 -9 16 23 16 38 0 43 8 24 40 -19 29 1 38
22 10 34 -44 19 -104 -32 -131 -15 -8 -22 -8 -28 1 -6 9 -16 6 -39 -11 -46
-34 -37 -52 31 -64 61 -11 87 -25 45 -25 -33 0 -74 -19 -81 -37 -5 -11 0 -13
17 -7 12 3 28 11 35 16 9 8 12 5 12 -11 0 -17 4 -21 19 -16 11 3 22 1 26 -5 9
-15 25 -12 25 5 0 9 -9 15 -25 15 -30 0 -33 20 -5 27 13 4 19 11 16 22 -2 9
-8 31 -11 50 -6 29 -5 33 10 28 9 -4 25 -7 36 -7 21 0 26 -25 6 -33 -7 -3 -14
-22 -15 -43 -2 -31 0 -35 9 -21 14 23 35 22 53 -5 12 -16 16 -18 20 -7 8 25
17 74 17 92 0 9 5 17 11 17 6 0 8 3 5 6 -4 4 -18 -1 -31 -10 -37 -23 -39 -20
-16 23 l20 40 -36 -6 c-34 -6 -36 -5 -29 16 5 17 2 24 -13 28 -11 2 -23 12
-26 21 -3 10 -9 23 -12 30 -11 23 13 12 50 -23 20 -19 43 -32 50 -29 8 3 16
-4 19 -17 5 -17 11 -21 31 -17 19 4 26 0 29 -16 4 -21 5 -21 12 1 8 26 25 21
25 -8 0 -10 5 -19 10 -19 6 0 10 -9 10 -20 0 -23 -8 -26 -24 -6 -7 9 -18 11
-31 6 -17 -7 -17 -9 -2 -9 27 -1 20 -21 -8 -21 -14 0 -24 -3 -23 -7 1 -5 -3
-18 -11 -31 -16 -30 -10 -51 10 -28 54 65 64 69 80 30 7 -21 6 -32 -7 -52 -9
-13 -11 -21 -4 -17 15 10 67 -13 75 -33 7 -20 -25 -48 -36 -31 -3 6 -15 9 -25
7 -16 -4 -15 -7 9 -16 23 -10 33 -9 53 4 13 9 28 14 32 10 3 -4 0 -11 -8 -16
-13 -8 -12 -10 3 -10 10 0 15 -4 12 -10 -3 -5 -15 -10 -25 -10 -10 0 -23 -7
-28 -16 -8 -14 -10 -14 -21 0 -18 21 -65 22 -57 1 3 -8 -2 -19 -12 -24 -9 -5
-14 -13 -10 -17 4 -4 19 1 32 10 35 22 43 20 20 -5 l-19 -21 35 7 c58 14 74
12 78 -10 6 -29 20 -41 34 -27 9 9 8 13 -5 18 -24 9 -33 65 -13 79 18 14 12
76 -8 72 -6 -1 -10 8 -8 21 2 12 -2 22 -7 22 -6 0 -11 11 -11 23 0 13 -8 32
-19 41 -18 16 -18 16 -14 -9 3 -15 1 -25 -6 -25 -7 0 -12 16 -12 38 0 90 -4
122 -17 122 -9 0 -10 5 -2 19 11 22 -5 33 -31 20 -10 -5 -19 -1 -28 13 -12 19
-11 20 18 16 26 -4 31 -1 31 16 0 14 -3 17 -11 9 -8 -8 -19 -6 -41 4 -21 11
-26 18 -18 23 8 5 10 18 6 36 -4 16 -9 52 -12 79 -5 48 -24 89 -24 52 0 -9 -7
-17 -15 -17 -14 0 -14 4 0 36 12 30 13 43 1 94 -18 77 -21 80 -66 80 -29 0
-43 6 -54 22 -14 20 -14 23 0 31 13 7 14 11 3 17 -10 7 -10 14 -1 35 7 14 12
36 12 48 0 12 5 29 10 37 8 13 12 12 29 -5 22 -23 39 -75 23 -75 -5 0 -15 7
-22 15 -7 8 -17 15 -22 15 -6 0 -5 -6 2 -15 6 -8 9 -18 7 -23 -3 -4 -1 -14 4
-22 8 -13 13 -11 29 9 15 17 20 38 20 77 0 47 -3 54 -19 54 -11 0 -23 5 -26
10 -9 15 -19 12 -51 -12z m1 -220 c14 -6 25 -17 25 -24 0 -18 -27 -25 -34 -8
-3 8 -12 14 -21 14 -8 0 -15 5 -15 12 0 6 -3 9 -6 6 -10 -10 15 -46 36 -53 12
-4 33 3 57 19 46 32 48 32 48 1 0 -20 -4 -23 -24 -18 -17 4 -22 2 -17 -6 4 -6
13 -11 20 -11 13 0 56 -53 56 -70 0 -19 -18 -10 -37 18 -10 15 -22 27 -28 27
-30 1 -96 18 -101 26 -3 5 -14 9 -25 9 -11 0 -19 7 -19 16 0 13 -3 14 -15 4
-8 -6 -19 -9 -25 -5 -18 11 -11 23 20 30 16 4 32 11 35 16 8 12 39 11 70 -3z
m-181 -233 c-4 -8 -8 -15 -10 -15 -2 0 -4 7 -4 15 0 8 4 15 10 15 5 0 7 -7 4
-15z m121 -95 c-3 -5 -10 -10 -16 -10 -5 0 -9 5 -9 10 0 6 7 10 16 10 8 0 12
-4 9 -10z m11 -39 c-3 -4 1 -17 9 -27 21 -28 18 -36 -11 -32 -35 4 -53 31 -35
52 14 16 46 23 37 7z m-181 -31 c3 -5 1 -19 -6 -31 -9 -17 -13 -19 -20 -8 -14
22 -11 49 5 49 8 0 18 -4 21 -10z m125 -21 c0 -5 -4 -9 -10 -9 -5 0 -10 7 -10
16 0 8 5 12 10 9 6 -3 10 -10 10 -16z m187 -95 c2 -7 -8 -11 -26 -10 -23 1
-27 4 -19 14 13 15 40 12 45 -4z m-333 -49 c-6 -16 -24 -21 -24 -7 0 11 11 22
21 22 5 0 6 -7 3 -15z m206 5 c-20 -13 -53 -13 -45 0 3 6 18 10 33 10 21 0 24
-2 12 -10z m150 -36 c0 -8 -4 -12 -10 -9 -5 3 -10 13 -10 21 0 8 5 12 10 9 6
-3 10 -13 10 -21z m-420 -185 c0 -6 -4 -7 -10 -4 -5 3 -10 11 -10 16 0 6 5 7
10 4 6 -3 10 -11 10 -16z"/>
<path d="M3127 3441 c3 -10 0 -29 -7 -41 -10 -20 -10 -21 8 -16 14 5 24 -1 36
-19 18 -27 46 -34 46 -11 0 7 -7 19 -15 26 -12 10 -13 16 -5 24 8 8 15 6 26
-8 13 -19 14 -19 14 6 0 15 3 34 7 43 5 15 3 16 -15 6 -26 -14 -72 -14 -72 -1
0 6 -6 10 -14 10 -9 0 -12 -7 -9 -19z"/>
<path d="M2870 3409 c-14 -10 -20 -19 -13 -19 6 0 15 5 18 10 9 14 27 12 50
-5 18 -14 18 -16 2 -33 -17 -16 -18 -16 -23 5 -8 30 -24 19 -24 -16 0 -15 -6
-33 -12 -41 -7 -7 4 -3 25 10 44 26 61 19 29 -12 l-21 -22 22 -11 c12 -6 21
-19 19 -28 -3 -16 0 -16 29 -4 28 11 56 42 32 35 -4 -1 -19 2 -31 6 -19 6 -22
13 -18 31 3 13 1 27 -5 31 -9 5 -7 11 5 19 16 12 15 15 -11 32 -46 32 -48 32
-73 12z"/>
<path d="M3000 3370 c-16 -38 -9 -45 29 -32 17 6 31 8 31 3 0 -16 -26 -31 -54
-31 -23 0 -27 -3 -18 -12 9 -9 18 -9 37 0 15 7 31 10 36 7 5 -4 9 1 9 10 0 25
23 13 30 -16 22 -82 23 -78 -9 -66 -40 15 -63 4 -55 -28 4 -18 2 -27 -10 -31
-10 -4 -16 -18 -16 -35 0 -16 -4 -29 -10 -29 -5 0 -10 5 -10 10 0 6 -4 10 -10
10 -18 0 -11 -29 10 -40 11 -6 20 -18 20 -26 0 -8 5 -12 10 -9 6 3 10 15 10
26 0 10 7 19 15 19 8 0 15 5 15 11 0 6 -7 9 -15 5 -10 -3 -15 1 -15 11 0 23
40 103 51 103 6 0 6 -7 0 -19 -7 -12 -7 -30 -1 -52 14 -48 12 -79 -4 -79 -8 0
-17 -7 -20 -16 -5 -13 -2 -15 15 -11 20 5 20 5 3 -14 -9 -10 -14 -22 -10 -27
11 -11 36 28 36 57 0 14 4 33 10 41 7 12 10 11 15 -5 16 -50 26 -65 42 -65 14
0 13 3 -6 21 -22 20 -23 32 -6 71 5 13 0 17 -27 20 -18 2 -31 8 -28 13 3 6 8
9 13 8 4 -2 7 6 7 17 0 10 9 24 21 30 19 11 19 13 5 29 -20 22 -21 35 -2 28 8
-3 17 1 20 9 9 22 8 24 -9 18 -9 -4 -15 0 -15 10 0 9 5 16 11 16 5 0 8 4 5 9
-3 4 -17 6 -31 3 -15 -2 -25 0 -25 7 0 7 -4 10 -9 7 -4 -3 -23 6 -41 19 -19
14 -35 25 -36 25 -1 0 -7 -14 -14 -30z"/>
<path d="M2820 3375 c-8 -11 -26 -26 -40 -32 -24 -11 -24 -12 13 -12 39 -1 52
12 45 46 -3 17 -4 17 -18 -2z"/>
<path d="M3232 3335 c-45 -20 -70 -85 -32 -85 10 0 23 -7 28 -16 8 -14 10 -14
21 0 9 11 10 16 2 16 -17 0 -13 41 5 61 25 28 13 39 -24 24z m8 -25 c0 -5 -4
-10 -10 -10 -5 0 -10 5 -10 10 0 6 5 10 10 10 6 0 10 -4 10 -10z"/>
<path d="M2750 3298 c0 -17 3 -18 15 -8 12 10 18 10 32 -1 14 -12 16 -12 11 0
-2 8 -16 18 -31 22 -23 6 -27 4 -27 -13z"/>
<path d="M2696 3284 c-3 -9 -6 -24 -6 -35 0 -16 -3 -18 -19 -9 -28 15 -35 12
-20 -7 12 -15 12 -16 -8 -11 -15 4 -23 1 -26 -11 -3 -12 2 -17 16 -17 31 1 31
-21 1 -28 -19 -5 -32 -2 -43 8 -10 11 -11 16 -3 16 7 0 12 5 12 10 0 21 -40
-10 -46 -36 -5 -18 -11 -23 -25 -19 -11 4 -19 2 -19 -4 0 -7 21 -9 60 -4 62 6
69 1 45 -31 -11 -15 -15 -16 -16 -5 -1 8 -4 -2 -8 -21 -5 -31 -10 -35 -38 -38
-35 -3 -40 -11 -21 -30 6 -6 8 -15 3 -19 -4 -5 -10 -2 -12 5 -3 6 -11 12 -19
12 -7 0 -16 11 -20 25 -7 28 3 47 14 28 6 -9 16 -5 37 13 29 25 29 25 5 18
-14 -4 -43 -7 -65 -8 -33 -1 -48 -8 -78 -38 -20 -21 -37 -41 -37 -46 0 -15 25
-31 36 -24 14 9 38 53 39 71 0 8 6 16 13 18 8 3 12 -11 12 -51 0 -55 -15 -81
-31 -55 -7 11 -11 11 -21 1 -10 -10 -10 -15 2 -22 8 -5 25 -10 36 -10 16 0 22
-6 22 -22 0 -35 22 -108 32 -108 5 0 21 -11 36 -25 15 -14 31 -25 35 -25 16 0
10 -28 -13 -64 -24 -37 -38 -45 -38 -22 0 8 -3 17 -7 19 -5 3 -8 -20 -8 -51
-1 -38 -7 -66 -19 -84 -16 -25 -22 -27 -57 -22 -29 5 -39 3 -39 -7 0 -10 -3
-10 -12 -1 -15 15 -64 -13 -72 -40 -4 -18 -3 -19 21 -2 26 16 26 16 20 -7 -7
-27 17 -59 45 -59 26 0 22 15 -7 28 -25 11 -34 32 -15 32 5 0 7 7 4 15 -4 10
0 15 13 15 16 0 19 -5 15 -30 -3 -24 -1 -29 11 -24 9 3 13 12 10 22 -5 11 -2
14 9 9 12 -4 31 14 68 65 34 47 46 69 33 64 -11 -4 -7 4 12 21 17 14 31 30 31
35 1 4 2 13 3 18 0 6 7 10 14 10 25 0 50 37 43 64 -4 18 -3 24 6 21 7 -2 25
11 41 30 34 41 28 66 -15 62 -36 -2 -44 11 -24 38 14 20 15 20 38 -2 14 -13
29 -23 35 -23 6 0 13 -3 16 -7 2 -5 2 -2 1 5 -2 6 4 12 12 12 32 0 6 25 -37
37 -24 6 -40 12 -35 12 5 1 2 8 -5 17 -11 14 -10 18 6 30 10 8 28 14 39 14 18
0 18 1 -4 25 -13 14 -20 28 -15 32 4 5 10 2 12 -5 3 -7 16 -17 28 -22 21 -8
23 -14 18 -45 -4 -23 -2 -35 6 -35 6 0 11 6 11 13 0 17 48 62 57 54 3 -4 -4
-18 -17 -32 -13 -14 -18 -25 -12 -25 18 0 103 126 96 143 -3 10 2 18 16 22 44
14 65 85 25 85 -8 0 -20 11 -25 25 -10 27 -30 34 -30 10 0 -11 -11 -15 -39
-15 -22 0 -43 -5 -47 -11 -4 -7 -16 -2 -33 14 -14 13 -34 27 -43 30 -11 4 -15
12 -12 22 3 8 4 15 1 15 -3 0 -8 -7 -11 -16z m57 -87 c-3 -4 -11 -3 -19 4 -10
8 -18 9 -25 2 -7 -7 -5 -14 6 -23 8 -7 15 -19 15 -27 0 -12 -3 -12 -16 2 -21
20 -29 13 -15 -13 15 -29 14 -37 -4 -22 -24 20 -18 68 11 97 24 24 26 24 39 7
7 -10 11 -22 8 -27z m97 13 c12 -8 9 -10 -12 -10 -15 0 -30 5 -33 10 -8 13 25
13 45 0z m86 -21 c4 -8 -1 -9 -17 -4 -23 7 -23 7 -6 -12 23 -26 22 -36 -2 -23
-13 6 -22 7 -26 0 -3 -5 -12 -7 -19 -4 -8 3 -23 -10 -36 -33 -14 -24 -25 -33
-28 -24 -2 7 0 16 6 20 6 3 13 23 17 43 6 30 12 38 34 41 51 8 70 7 77 -4z
m-146 -7 c0 -13 -12 -22 -22 -16 -10 6 -1 24 13 24 5 0 9 -4 9 -8z m0 -41 c0
-5 -7 -14 -15 -21 -13 -10 -12 -15 3 -35 15 -20 19 -21 49 -9 55 24 67 19 41
-17 -12 -16 -24 -25 -26 -19 -3 7 -12 6 -29 -5 -32 -21 -53 -13 -54 22 l0 28
-10 -24 c-6 -17 -13 -21 -20 -14 -11 11 4 55 29 86 16 18 32 23 32 8z m-117
-56 c3 -17 2 -37 -3 -45 -8 -13 -11 -13 -24 0 -12 12 -13 21 -3 52 13 41 21
39 30 -7z m-48 -110 c-21 -20 -35 -38 -31 -42 3 -4 13 2 21 13 13 16 16 17 25
4 14 -21 12 -28 -9 -35 -10 -3 -21 -16 -23 -30 -4 -19 1 -26 23 -36 52 -21 29
-40 -25 -20 -18 8 -25 19 -28 43 -2 26 -8 34 -26 36 l-24 4 20 21 c11 12 22
33 24 47 2 21 8 25 35 25 17 0 35 3 39 8 4 4 10 5 12 2 3 -3 -12 -21 -33 -40z
m-128 0 c8 -22 -6 -33 -17 -15 -13 20 -12 30 0 30 6 0 13 -7 17 -15z m38 -31
c-18 -28 -14 -54 10 -54 17 0 19 -9 6 -29 -6 -9 -11 -10 -15 -3 -4 6 -13 9
-20 6 -7 -3 -19 2 -26 11 -11 13 -10 20 8 45 12 16 22 34 22 40 0 5 7 10 16
10 15 0 15 -2 -1 -26z m-10 -113 c7 -12 -12 -24 -25 -16 -11 7 -4 25 10 25 5
0 11 -4 15 -9z m45 -21 c0 -11 -4 -20 -10 -20 -5 0 -10 9 -10 20 0 11 5 20 10
20 6 0 10 -9 10 -20z m40 -35 c0 -8 -7 -15 -15 -15 -26 0 -18 20 13 29 1 1 2
-6 2 -14z"/>
<path d="M3050 3280 c-9 -6 -10 -10 -3 -10 6 0 15 5 18 10 8 12 4 12 -15 0z"/>
<path d="M1120 3271 c0 -6 5 -13 10 -16 6 -3 10 1 10 9 0 9 -4 16 -10 16 -5 0
-10 -4 -10 -9z"/>
<path d="M2760 3261 c0 -6 5 -13 10 -16 6 -3 10 1 10 9 0 9 -4 16 -10 16 -5 0
-10 -4 -10 -9z"/>
<path d="M2835 3260 c3 -5 8 -10 11 -10 2 0 4 5 4 10 0 6 -5 10 -11 10 -5 0
-7 -4 -4 -10z"/>
<path d="M3162 3214 c-24 -23 -22 -44 4 -44 8 0 14 -4 14 -10 0 -5 6 -10 14
-10 15 0 28 48 15 56 -5 3 -9 0 -9 -5 0 -6 -10 -11 -22 -11 l-23 0 24 19 c13
10 20 20 15 23 -5 2 -20 -6 -32 -18z"/>
<path d="M3219 3148 c-22 -42 -35 -57 -37 -45 -4 19 -22 24 -22 5 0 -26 17
-40 39 -33 14 4 23 1 27 -9 3 -9 12 -16 19 -16 8 0 16 -10 18 -22 3 -19 5 -18
6 6 0 18 -7 35 -20 47 -16 14 -19 24 -13 53 7 43 21 47 27 9 2 -17 5 -10 6 20
0 26 -3 47 -8 47 -4 0 -23 -28 -42 -62z"/>
<path d="M807 3183 c-11 -10 13 -33 34 -33 23 0 25 25 3 34 -20 8 -29 8 -37
-1z"/>
<path d="M760 3112 c0 -30 2 -32 20 -22 11 6 20 18 20 26 0 9 -5 12 -11 8 -6
-3 -15 0 -20 7 -6 10 -9 4 -9 -19z"/>
<path d="M857 3133 c-4 -3 -7 -10 -7 -14 0 -9 39 1 46 12 6 10 -29 12 -39 2z"/>
<path d="M1060 3101 c0 -5 8 -12 17 -15 15 -6 15 -8 3 -16 -8 -6 -25 -10 -37
-10 -17 0 -21 4 -17 18 3 9 -2 5 -11 -10 -17 -31 -25 -34 -43 -16 -9 9 -12 8
-12 -7 0 -11 -3 -31 -7 -44 l-6 -24 31 19 c18 10 35 26 38 36 6 19 29 24 39 8
16 -26 50 18 40 51 -6 19 -35 27 -35 10z"/>
<path d="M2935 3050 c-8 -9 -17 -32 -21 -51 -10 -59 -13 -66 -25 -49 -9 13
-10 13 -6 0 8 -31 32 -15 37 24 3 25 13 44 28 54 24 16 31 2 7 -18 -19 -16
-20 -64 -1 -79 11 -9 15 -9 19 1 3 7 6 1 6 -14 1 -21 -4 -28 -18 -28 -25 0
-33 -12 -20 -30 8 -12 12 -12 16 -2 4 10 8 10 19 1 7 -6 21 -9 29 -5 12 4 14
10 5 25 -13 26 -3 51 21 51 16 0 18 -5 13 -26 -8 -31 13 -49 35 -31 11 9 15 9
18 0 3 -7 13 -13 23 -13 9 0 23 -7 30 -16 11 -13 9 -19 -12 -41 -15 -15 -28
-21 -32 -15 -3 6 1 18 10 26 14 15 14 17 0 22 -9 3 -23 3 -31 0 -12 -4 -14
-10 -5 -25 5 -11 15 -32 21 -48 l10 -28 19 25 c23 30 26 13 6 -35 -10 -23 -11
-37 -4 -41 6 -4 5 -9 -3 -15 -10 -6 -11 -9 -1 -9 6 0 12 -6 12 -12 -1 -7 -12
1 -25 17 l-25 30 0 -39 c0 -23 7 -47 17 -58 15 -17 14 -18 -17 -18 -27 0 -32
3 -27 20 3 11 1 23 -4 26 -16 10 -10 69 10 86 13 11 17 24 14 42 -3 14 -7 26
-8 26 -1 0 -19 -7 -38 -15 -48 -20 -56 -2 -11 25 29 16 34 24 25 33 -10 9 -14
8 -22 -5 -11 -19 -39 -25 -39 -8 0 6 -4 10 -10 10 -5 0 -10 -8 -10 -18 0 -22
-25 -59 -48 -71 -14 -7 -17 -4 -19 25 -1 24 3 34 13 34 8 0 14 -7 14 -16 0 -8
5 -12 10 -9 25 15 9 52 -39 87 -45 34 -50 36 -63 20 -27 -31 -34 -49 -11 -29
28 25 46 21 72 -14 13 -18 18 -29 12 -24 -16 9 -51 -23 -51 -47 0 -10 -6 -18
-14 -18 -7 0 -16 -9 -19 -20 -9 -33 -25 -23 -24 15 2 64 -17 62 -66 -9 -45
-64 -46 -66 -22 -66 14 0 25 -4 25 -9 0 -11 -25 -21 -50 -21 -35 0 -29 -16 10
-27 36 -9 38 -9 29 9 -7 13 -6 18 5 18 8 0 16 -14 20 -35 7 -34 19 -45 72 -65
25 -10 24 -8 -14 34 -45 49 -63 99 -55 152 9 54 28 35 27 -27 -1 -30 0 -46 3
-37 6 23 30 29 83 20 32 -5 46 -13 48 -26 4 -17 2 -17 -22 -1 l-25 17 12 -26
c7 -14 20 -26 31 -26 12 0 16 -5 12 -16 -3 -9 -6 -18 -6 -20 0 -3 -10 0 -21 7
-17 9 -24 8 -31 -2 -7 -10 -8 -4 -4 19 6 36 -8 43 -30 15 -13 -17 -15 -17 -30
2 -16 20 -16 20 -12 0 8 -47 148 -94 148 -49 0 10 6 14 15 10 17 -6 21 9 5 19
-5 3 -10 11 -10 17 0 7 6 6 15 -2 26 -22 18 -58 -17 -80 -30 -18 -31 -20 -10
-20 13 0 20 -4 17 -10 -10 -16 -37 -12 -50 7 -12 17 -14 17 -35 -2 -17 -15
-25 -17 -39 -8 -18 12 -31 8 -31 -9 0 -4 9 -8 20 -8 28 0 25 -20 -2 -21 -18
-1 -19 -2 -5 -6 27 -7 2 -33 -32 -33 -20 0 -23 2 -11 10 8 5 12 11 9 15 -3 3
-13 -3 -23 -14 -16 -17 -15 -19 13 -24 17 -4 32 -14 36 -26 7 -24 57 -40 103
-33 34 5 55 21 24 18 -11 -1 -18 7 -19 24 -2 20 -1 21 5 7 7 -17 9 -17 21 -4
7 9 18 14 26 11 7 -3 21 8 31 25 10 17 26 34 36 37 22 7 32 39 19 61 -9 16
-10 16 -11 -5 0 -15 -9 -27 -28 -35 -17 -7 -26 -18 -24 -28 2 -9 -4 -19 -13
-23 -18 -7 -55 9 -55 24 0 13 17 13 25 0 10 -17 25 -11 25 9 0 12 9 23 22 27
l23 7 -25 10 -25 9 28 10 c24 8 28 15 24 35 -3 16 1 27 10 30 10 4 3 13 -23
31 -33 22 -35 26 -21 37 10 7 17 26 17 46 l0 33 22 -21 c20 -21 21 -23 4 -48
-17 -26 -17 -28 3 -49 12 -12 21 -31 21 -42 1 -19 32 -64 45 -64 4 0 2 7 -5
15 -10 12 -8 16 11 24 13 5 33 18 43 30 17 19 17 21 3 21 -10 0 -17 5 -17 11
0 6 9 9 20 6 27 -7 30 13 7 45 -25 33 -15 49 13 23 18 -16 30 -8 13 9 -16 16
-31 101 -21 114 8 9 8 16 0 24 -24 24 -11 28 18 7 16 -13 33 -19 37 -15 4 4 0
12 -10 17 -9 6 -14 15 -11 21 5 7 2 9 -9 5 -8 -3 -32 3 -52 13 -32 16 -34 19
-15 25 36 12 16 35 -31 35 -10 0 -19 7 -19 15 0 19 -10 19 -38 -1 -12 -8 -22
-10 -22 -5 0 6 -11 11 -24 11 -29 0 -42 15 -21 24 21 8 21 73 0 73 -8 0 -22
-8 -30 -17z m142 -142 c-3 -8 -6 -5 -6 6 -1 11 2 17 5 13 3 -3 4 -12 1 -19z
m-101 -204 c-3 -8 -17 -14 -31 -14 l-26 0 28 29 c28 28 43 21 29 -15z m84 37
c0 -12 -20 -25 -27 -18 -7 7 6 27 18 27 5 0 9 -4 9 -9z m-180 -31 c12 -8 9
-10 -12 -10 -16 0 -28 5 -28 10 0 13 20 13 40 0z m80 -56 c0 -8 -4 -12 -10 -9
-5 3 -10 10 -10 16 0 5 5 9 10 9 6 0 10 -7 10 -16z m-80 -184 c0 -5 -7 -10
-16 -10 -8 0 -12 5 -9 10 3 6 10 10 16 10 5 0 9 -4 9 -10z m10 -60 c-14 -33
-17 -34 -54 -20 -16 6 -24 15 -20 24 9 23 37 29 50 11 11 -15 13 -14 19 5 4
12 9 19 12 16 3 -3 0 -19 -7 -36z"/>
<path d="M3010 3026 c0 -9 5 -16 10 -16 6 0 10 4 10 9 0 6 -4 13 -10 16 -5 3
-10 -1 -10 -9z"/>
<path d="M675 3020 c-3 -5 -1 -10 4 -10 6 0 11 5 11 10 0 6 -2 10 -4 10 -3 0
-8 -4 -11 -10z"/>
<path d="M3150 3023 c-45 -6 -55 -16 -39 -40 15 -26 63 -50 114 -58 35 -6 37
-8 20 -17 -29 -16 -29 -15 -12 -42 18 -27 11 -38 -30 -50 -26 -8 -30 -38 -8
-56 20 -16 19 -30 -1 -30 -9 0 -14 -5 -12 -12 8 -22 24 -19 36 7 14 31 15 48
3 40 -15 -8 -25 15 -12 28 8 8 11 7 11 -2 0 -8 9 -2 20 12 23 29 25 48 8 65
-9 9 -7 13 5 18 26 10 21 43 -8 54 -39 15 -31 34 10 27 21 -3 33 -2 30 4 -8
12 -42 11 -82 -3 -28 -10 -36 -10 -50 5 -9 9 -14 20 -10 24 4 3 13 -2 21 -12
12 -17 14 -17 29 6 20 28 21 40 5 37 -7 0 -29 -3 -48 -5z"/>
<path d="M705 2981 c-4 -14 -15 -21 -31 -21 -13 0 -24 -5 -24 -11 0 -5 -4 -7
-10 -4 -15 9 -12 33 5 38 11 4 10 4 -2 3 -23 -2 -29 -39 -9 -55 8 -7 27 -11
42 -9 22 2 30 10 36 37 10 36 4 55 -7 22z"/>
<path d="M2694 2965 c11 -8 27 -15 35 -15 10 1 7 6 -9 15 -33 19 -50 18 -26 0z"/>
<path d="M2346 2945 c6 -26 5 -26 -15 -15 -18 9 -26 9 -39 -3 -9 -8 -25 -17
-34 -20 -21 -8 -90 -109 -79 -117 14 -9 -8 -53 -23 -47 -8 3 -16 -2 -19 -13
-4 -15 1 -20 27 -22 24 -2 32 -8 34 -28 3 -21 2 -22 -12 -11 -11 9 -16 10 -16
2 0 -7 -9 -9 -25 -5 -20 5 -24 3 -19 -10 5 -12 2 -15 -10 -10 -26 10 -18 -12
9 -24 14 -6 25 -16 25 -22 0 -13 -37 -13 -45 0 -8 14 -25 13 -25 -2 0 -6 7
-19 15 -28 8 -9 18 -30 21 -47 6 -28 4 -30 -18 -26 -15 3 -30 -2 -39 -13 -12
-15 -12 -16 7 -10 22 7 54 -1 54 -13 0 -3 -13 -12 -30 -19 -23 -11 -30 -20
-30 -42 0 -34 15 -47 35 -30 26 21 18 -15 -10 -48 -28 -33 -33 -84 -13 -126
10 -24 12 -24 24 -8 13 16 13 16 14 0 0 -10 3 -18 8 -18 13 0 30 -49 25 -73
-4 -21 -4 -21 10 -4 18 22 7 75 -19 94 -14 10 -15 15 -4 28 9 11 9 15 1 15 -7
0 -9 5 -6 10 3 6 19 10 36 10 31 0 37 12 17 34 -10 11 -17 10 -39 -6 -17 -13
-34 -18 -48 -13 -31 9 -26 25 8 25 31 0 49 14 31 25 -15 9 -12 25 4 25 8 0 16
6 19 13 4 10 13 -7 32 -61 3 -7 9 -11 14 -7 13 7 23 -11 32 -55 6 -32 8 -33
14 -12 6 19 10 20 23 10 13 -11 14 -10 9 2 -4 8 -10 23 -13 33 -7 20 -20 22
-27 5 -3 -7 -6 -4 -6 8 -1 11 1 23 4 26 9 9 55 -16 55 -29 0 -16 26 -17 36 -1
4 7 3 8 -4 4 -17 -10 -15 16 3 40 11 14 15 16 15 4 0 -12 3 -11 11 3 5 9 7 22
4 28 -4 6 2 13 14 16 29 8 26 18 -10 33 -26 11 -32 11 -40 -1 -14 -22 -11 -33
6 -19 12 10 15 9 15 -4 0 -9 -7 -19 -15 -22 -8 -4 -15 -12 -15 -19 0 -21 -17
-27 -39 -13 -16 10 -23 10 -33 0 -16 -16 -28 -15 -28 3 0 8 8 20 19 27 18 11
17 13 -7 59 -20 40 -22 51 -12 64 15 18 54 20 47 3 -2 -7 -12 -12 -21 -12 -9
1 -15 -3 -13 -10 5 -13 39 -9 49 7 12 19 9 37 -7 37 -8 0 -15 5 -15 10 0 6 8
10 18 10 14 0 15 2 2 10 -13 8 -12 11 5 24 20 15 20 15 -2 16 -14 0 -23 6 -23
15 0 19 1 19 50 -2 43 -19 52 -33 21 -33 -11 0 -23 -4 -26 -10 -8 -13 7 -13
42 1 39 16 83 21 83 9 0 -6 7 -10 15 -10 8 0 15 3 15 6 0 13 -35 33 -58 34
-34 0 -82 28 -82 47 0 13 5 12 25 -7 33 -31 32 -14 -1 21 l-25 26 46 6 c27 4
55 2 67 -4 11 -6 26 -8 34 -5 16 6 19 36 4 36 -5 0 -10 5 -10 11 0 8 14 9 44
5 28 -5 47 -3 51 4 9 15 -19 45 -55 60 -16 7 -30 21 -32 33 -2 11 -9 22 -17
25 -8 3 -11 0 -7 -7 10 -15 -5 -13 -28 4 -22 17 -66 20 -66 6 0 -6 5 -13 12
-17 8 -5 6 -11 -6 -20 -16 -11 -14 -15 23 -40 23 -14 41 -28 41 -30 0 -2 -15
-4 -32 -4 -25 0 -29 3 -18 10 11 7 4 10 -27 10 -24 0 -43 -5 -46 -12 -4 -10
-7 -10 -18 0 -7 6 -24 12 -38 11 -26 0 -26 0 -3 -9 27 -11 29 -30 3 -30 -30 0
-45 25 -31 50 9 17 18 21 38 17 21 -4 31 1 45 19 10 13 13 24 7 24 -6 0 -15
10 -19 23 -9 22 -9 21 -21 -8 -12 -30 -12 -30 -23 -7 -8 17 -6 26 8 42 10 11
27 20 37 20 10 0 21 7 24 15 8 19 24 20 24 1 0 -8 -10 -22 -22 -30 -12 -9 -19
-18 -16 -21 3 -3 17 4 31 15 14 11 32 19 39 18 18 -4 18 74 0 80 -9 3 -11 -3
-6 -23z m-140 -152 c-11 -11 -19 6 -11 24 8 17 8 17 12 0 3 -10 2 -21 -1 -24z
m282 -35 c-2 -6 -10 -14 -16 -16 -7 -2 -10 2 -6 12 7 18 28 22 22 4z m52 -29
c0 -6 -4 -7 -10 -4 -5 3 -10 11 -10 16 0 6 5 7 10 4 6 -3 10 -11 10 -16z
m-210 -9 c6 -11 18 -20 28 -20 15 0 15 -2 2 -10 -22 -14 -30 -12 -38 9 -7 18
-8 18 -37 -5 -27 -22 -28 -26 -12 -35 9 -5 17 -19 17 -30 0 -16 -3 -18 -19 -7
-28 17 -58 -12 -69 -66 l-8 -41 -12 47 c-7 26 -16 50 -22 53 -15 9 -12 25 3
19 18 -6 72 22 58 31 -17 10 -13 25 7 25 9 0 31 11 47 25 37 30 41 30 55 5z
m100 -15 c-14 -16 -40 -20 -40 -6 0 10 17 19 39 20 11 1 11 -2 1 -14z m-294
-142 c12 -16 15 -16 24 -3 8 12 10 9 10 -12 0 -15 -4 -30 -10 -33 -18 -11 -11
-23 10 -18 24 6 26 -9 5 -27 -8 -7 -15 -16 -15 -21 0 -5 7 -9 15 -9 8 0 15 -4
15 -10 0 -5 -16 -10 -35 -10 -19 0 -35 -4 -35 -9 0 -5 -11 -8 -25 -7 -34 2
-31 15 6 29 30 12 31 14 26 62 -2 28 -8 58 -12 68 -4 9 -4 17 0 17 4 0 14 -8
21 -17z m24 -173 c0 -5 -4 -10 -10 -10 -5 0 -10 5 -10 10 0 6 5 10 10 10 6 0
10 -4 10 -10z m42 -27 c-5 -24 -6 -25 -18 -8 -15 20 -10 35 10 35 9 0 12 -9 8
-27z m-125 -135 c-3 -8 -6 -5 -6 6 -1 11 2 17 5 13 3 -3 4 -12 1 -19z"/>
<path d="M590 2918 c0 -9 5 -20 10 -23 13 -8 13 5 0 25 -8 13 -10 13 -10 -2z"/>
<path d="M2405 2910 c-19 -7 -19 -8 -2 -15 10 -4 16 -14 13 -21 -3 -8 1 -14
10 -14 11 0 13 7 8 28 -8 33 -5 31 -29 22z"/>
<path d="M2884 2904 c-18 -15 -18 -15 6 -10 14 3 28 6 33 6 4 0 7 5 7 10 0 15
-24 12 -46 -6z"/>
<path d="M3150 2910 c0 -6 7 -10 15 -10 8 0 15 2 15 4 0 2 -7 6 -15 10 -8 3
-15 1 -15 -4z"/>
<path d="M630 2893 c1 -18 18 -35 24 -24 4 6 4 16 1 21 -7 12 -25 13 -25 3z"/>
<path d="M680 2875 c0 -15 6 -25 14 -25 19 0 30 32 14 42 -21 13 -28 9 -28
-17z"/>
<path d="M1177 2883 c-13 -13 -7 -21 13 -16 11 3 20 9 20 14 0 10 -24 12 -33
2z"/>
<path d="M586 2853 c4 -16 11 -31 16 -34 5 -3 4 -16 -2 -30 -9 -19 -8 -31 3
-52 l14 -27 10 23 c8 17 7 28 -3 42 -10 13 -11 22 -3 32 15 17 30 7 22 -15 -5
-14 -3 -14 16 3 19 17 20 21 7 23 -9 2 -16 8 -16 14 0 7 -5 6 -15 -2 -20 -16
-40 -3 -24 17 10 12 10 16 -2 24 -24 15 -30 10 -23 -18z"/>
<path d="M540 2831 c0 -5 5 -13 10 -16 6 -3 10 -2 10 4 0 5 -4 13 -10 16 -5 3
-10 2 -10 -4z"/>
<path d="M2851 2828 c0 -9 -8 -21 -16 -25 -8 -5 -11 -13 -6 -21 12 -20 34 11
28 40 -2 14 -5 16 -6 6z"/>
<path d="M680 2769 c-16 -18 -27 -35 -25 -38 3 -3 12 5 20 16 8 12 24 23 35
25 22 3 29 20 11 26 -6 2 -24 -11 -41 -29z"/>
<path d="M505 2779 c-4 -6 -4 -13 -1 -16 3 -4 6 -1 6 5 0 15 27 16 32 1 2 -5
11 -7 21 -4 9 4 14 11 11 16 -7 13 -61 11 -69 -2z"/>
<path d="M500 2737 l-25 -11 28 -4 c16 -2 36 -1 45 3 14 5 14 7 2 15 -18 12
-19 12 -50 -3z"/>
<path d="M964 2735 c-17 -13 -17 -14 -2 -15 9 0 20 5 23 11 11 17 0 20 -21 4z"/>
<path d="M508 2703 c-14 -3 -18 -15 -18 -44 0 -33 -4 -41 -25 -49 l-26 -10 30
-29 c38 -37 48 -73 26 -91 -13 -11 -15 -10 -9 4 3 9 1 16 -5 16 -6 0 -11 6
-11 14 0 7 -7 19 -15 26 -13 11 -15 5 -15 -48 0 -66 6 -92 22 -92 6 0 8 12 5
30 -5 23 -3 28 8 24 21 -8 27 -38 14 -68 -13 -28 -14 -28 -46 -20 -13 4 -20
10 -17 15 3 5 1 9 -4 9 -6 0 -8 10 -4 22 4 15 2 19 -7 14 -15 -10 -5 -64 15
-86 10 -10 14 -11 14 -2 0 9 8 9 30 -3 38 -20 39 -19 50 10 11 30 40 33 40 5
0 -11 5 -20 11 -20 6 0 9 -9 6 -19 -3 -12 1 -22 9 -25 9 -3 14 2 14 14 0 13 5
18 15 14 12 -5 15 3 15 35 0 23 5 41 10 41 6 0 10 -6 10 -14 0 -7 7 -19 15
-26 9 -7 15 -20 13 -29 -4 -22 29 -66 49 -66 9 0 18 -6 21 -14 3 -10 -1 -12
-17 -8 -14 3 -21 0 -21 -9 0 -10 13 -14 43 -14 40 0 43 -2 42 -27 0 -35 -23
-41 -47 -12 -19 24 -19 24 -4 -14 9 -21 26 -53 38 -70 22 -31 23 -31 26 -9 3
18 6 21 17 12 11 -9 12 0 8 52 -3 40 -11 67 -20 73 -49 32 -56 43 -61 93 -4
49 6 69 23 42 3 -5 15 -10 26 -10 10 0 19 5 19 10 0 6 5 10 10 10 15 0 12 -38
-2 -43 -10 -3 -9 -16 5 -54 9 -28 17 -58 17 -67 0 -9 4 -16 9 -16 16 0 61 -42
55 -51 -4 -6 -11 -6 -19 1 -15 12 -35 6 -35 -11 0 -5 15 -9 34 -9 39 0 66 -24
48 -42 -9 -9 -15 -7 -25 6 -11 15 -17 16 -33 8 -48 -28 -48 -28 -27 -55 l20
-26 21 21 c20 20 21 21 20 2 0 -10 3 -27 7 -36 4 -11 0 -21 -14 -30 -12 -7
-21 -17 -21 -22 0 -5 30 -41 66 -80 95 -102 94 -101 94 -120 0 -10 9 -20 20
-23 11 -3 20 -9 20 -14 0 -21 93 -129 111 -129 11 0 24 -10 29 -22 8 -22 9
-22 9 4 1 21 -5 28 -29 33 -41 9 -39 38 4 64 40 25 46 26 46 6 0 -8 5 -24 12
-35 10 -15 10 -26 0 -53 -7 -18 -12 -46 -12 -61 0 -23 3 -26 14 -17 8 7 25 9
40 5 27 -6 31 1 20 30 -5 13 -9 14 -21 5 -9 -9 -17 -9 -24 -2 -16 16 57 68 90
65 20 -2 23 -1 11 7 -23 16 -48 13 -71 -10 -27 -27 -38 -15 -17 21 14 24 14
29 2 34 -20 8 -17 34 4 39 9 3 1 5 -18 6 -40 1 -69 16 -56 28 5 4 11 3 13 -3
2 -6 14 -9 28 -7 23 5 22 7 -24 52 -27 26 -51 54 -54 62 -5 12 -7 12 -16 -1
-7 -10 -7 -18 1 -27 8 -9 4 -15 -16 -23 -18 -7 -26 -17 -26 -34 0 -33 -10 -57
-21 -50 -5 3 -9 17 -9 31 0 44 -59 132 -61 91 0 -7 -4 -3 -9 10 -5 12 -17 22
-27 22 -22 1 -55 25 -46 33 24 25 137 -27 147 -68 4 -14 11 -25 16 -25 15 0
11 32 -5 54 -8 11 -13 27 -10 35 3 11 -8 22 -34 34 -47 21 -91 23 -91 2 0 -20
-16 -19 -24 1 -8 21 11 44 35 44 21 0 26 16 7 23 -10 4 -9 8 2 16 13 9 13 11
-2 11 -11 0 -18 -8 -18 -19 0 -11 -4 -23 -10 -26 -5 -3 -10 0 -10 8 0 8 -7 17
-15 21 -17 6 -20 51 -5 61 19 12 72 -6 77 -26 3 -10 9 -19 14 -19 5 0 9 -15 9
-32 0 -23 3 -29 9 -19 5 7 14 10 21 6 26 -16 -14 41 -67 93 -37 38 -53 61 -53
80 0 18 -3 23 -9 14 -5 -9 -15 -2 -34 26 -15 21 -27 46 -27 55 0 9 -11 24 -25
33 -26 17 -32 43 -14 61 6 6 8 21 4 33 -6 18 -12 21 -37 16 -40 -8 -83 16 -96
54 -14 37 -24 39 -22 3 1 -16 2 -31 1 -36 -2 -12 -72 21 -87 41 -17 21 -18 68
-2 78 7 5 4 10 -10 15 -12 5 -22 15 -22 24 0 20 5 19 34 -8 17 -16 22 -27 15
-38 -12 -19 -12 -49 1 -49 12 0 24 63 15 89 -7 22 -67 46 -91 37 -10 -4 -12
-11 -5 -23 26 -52 32 -72 29 -93 -4 -32 -21 -35 -34 -5 -10 21 -9 24 10 28 19
3 19 4 -6 15 -37 15 -39 62 -4 90 l25 19 -30 22 c-16 12 -29 31 -29 43 0 17 2
18 15 8 12 -10 15 -10 15 3 0 19 -9 25 -32 20z m22 -258 c0 -8 -4 -15 -9 -15
-13 0 -22 16 -14 24 11 11 23 6 23 -9z m25 -35 c3 -5 -3 -10 -14 -10 -12 0
-21 5 -21 10 0 6 6 10 14 10 8 0 18 -4 21 -10z m50 -12 c4 4 5 -2 3 -13 -5
-28 -32 -25 -36 5 -3 20 -1 22 10 12 8 -6 18 -8 23 -4z m122 -44 c11 -29 -3
-35 -30 -14 -15 12 -27 25 -27 29 0 13 51 -1 57 -15z m93 -228 c0 -20 -26 -40
-35 -26 -10 16 2 40 20 40 8 0 15 -6 15 -14z m66 -82 c-4 -9 -9 -15 -11 -12
-3 3 -3 13 1 22 4 9 9 15 11 12 3 -3 3 -13 -1 -22z m57 -109 c-5 -16 -33 -21
-33 -7 0 13 22 32 31 26 5 -2 6 -11 2 -19z m17 -34 c0 -6 -4 -13 -10 -16 -5
-3 -10 1 -10 9 0 9 5 16 10 16 6 0 10 -4 10 -9z m87 -13 c-3 -8 -6 -5 -6 6 -1
11 2 17 5 13 3 -3 4 -12 1 -19z m33 -144 c0 -14 -4 -22 -10 -19 -5 3 -10 17
-10 31 0 14 4 22 10 19 6 -3 10 -17 10 -31z m152 -6 c-7 -7 -12 -24 -12 -39 0
-27 -56 -87 -69 -74 -3 4 7 18 22 31 15 13 22 24 15 24 -8 0 -19 -5 -25 -11
-6 -6 -16 -8 -22 -5 -14 9 -2 36 16 36 13 0 13 3 3 15 -17 20 -5 32 15 15 12
-10 15 -10 15 4 0 11 9 16 27 16 21 0 24 -3 15 -12z"/>
<path d="M1371 2699 c-1 -8 6 -24 15 -35 15 -19 15 -19 6 1 -5 11 -12 27 -15
35 -5 13 -6 13 -6 -1z"/>
<path d="M2370 2641 c0 -11 4 -23 10 -26 6 -3 7 1 4 9 -4 12 0 16 17 17 23 0
23 1 4 9 -30 13 -35 12 -35 -9z"/>
<path d="M450 2640 c0 -5 4 -10 9 -10 6 0 13 5 16 10 3 6 -1 10 -9 10 -9 0
-16 -4 -16 -10z"/>
<path d="M2463 2643 c-14 -5 -16 -47 -3 -78 7 -19 9 -18 19 8 20 50 12 80 -16
70z"/>
<path d="M980 2620 c0 -5 4 -10 9 -10 6 0 13 5 16 10 3 6 -1 10 -9 10 -9 0
-16 -4 -16 -10z"/>
<path d="M1248 2579 c-43 -45 -45 -49 -20 -49 11 0 25 -12 32 -27 11 -23 14
-25 18 -10 2 10 16 20 33 24 36 7 28 23 -13 23 -30 0 -30 0 -14 25 9 14 14 25
10 25 -4 0 -1 7 6 15 10 12 10 15 -1 14 -8 0 -31 -18 -51 -40z"/>
<path d="M2641 2577 c-6 -8 -8 -17 -4 -20 3 -4 1 -7 -5 -7 -14 0 -72 -84 -72
-104 0 -8 9 -20 20 -26 23 -12 23 -10 11 22 -5 14 -4 33 2 48 9 23 11 21 18
-25 7 -43 5 -54 -12 -78 -24 -33 -22 -38 8 -26 15 5 21 14 17 24 -5 11 1 15
25 15 23 0 31 5 31 18 0 10 -5 23 -12 30 -9 9 -9 15 0 24 9 9 21 8 52 -5 39
-15 41 -15 55 6 22 31 19 46 -15 65 -16 9 -30 20 -30 24 0 4 -7 5 -15 2 -9 -4
-15 0 -15 10 0 20 -43 22 -59 3z m29 -7 c0 -5 -4 -10 -10 -10 -5 0 -10 5 -10
10 0 6 5 10 10 10 6 0 10 -4 10 -10z m-7 -36 c-5 -13 0 -14 30 -9 41 8 59 1
50 -20 -4 -12 -17 -14 -53 -11 -40 4 -50 2 -53 -12 -3 -9 -5 -3 -6 14 -1 28
14 54 31 54 4 0 5 -7 1 -16z m110 -42 c-6 -24 -23 -30 -23 -9 0 13 21 39 26
34 2 -2 1 -13 -3 -25z"/>
<path d="M1130 2540 c-14 -11 -32 -20 -40 -21 -8 0 3 -6 25 -14 l40 -13 -53
-1 c-33 -1 -51 -5 -47 -11 3 -5 2 -10 -4 -10 -17 0 -23 20 -11 35 10 12 9 15
-8 15 -15 0 -20 5 -16 15 4 10 0 15 -10 15 -23 0 -27 -18 -17 -70 5 -25 9 -35
10 -22 1 12 5 22 10 22 14 0 22 -49 11 -70 -11 -21 1 -63 27 -92 20 -22 58
-24 50 -4 -3 8 -1 16 5 18 7 3 9 12 5 22 -7 18 -8 18 -27 1 -11 -10 -23 -15
-27 -11 -4 4 -2 11 6 15 9 6 6 10 -11 16 -19 6 -20 8 -5 12 19 5 23 28 7 38
-18 11 -10 25 14 25 14 0 28 5 31 10 12 20 46 10 64 -20 18 -30 31 -30 31 0 0
9 -10 22 -22 28 -21 10 -22 11 -3 11 40 1 50 -14 37 -55 -14 -46 -10 -52 23
-30 16 10 25 26 25 42 0 26 -38 86 -50 79 -4 -2 -12 7 -18 20 -14 30 -19 30
-52 5z m38 -30 c4 -13 3 -13 -11 -2 -9 8 -22 10 -28 6 -8 -4 -9 -3 -5 5 10 16
38 10 44 -9z"/>
<path d="M2070 2550 c0 -5 5 -10 11 -10 5 0 7 5 4 10 -3 6 -8 10 -11 10 -2 0
-4 -4 -4 -10z"/>
<path d="M811 2511 c-12 -21 -8 -41 9 -41 13 0 21 31 11 47 -7 14 -10 13 -20
-6z"/>
<path d="M415 2510 c-3 -5 -1 -10 4 -10 6 0 11 5 11 10 0 6 -2 10 -4 10 -3 0
-8 -4 -11 -10z"/>
<path d="M2699 2423 c-9 -28 -9 -38 0 -41 6 -2 11 -14 11 -27 0 -12 7 -25 15
-29 17 -6 21 -46 5 -46 -6 0 -20 20 -32 45 -24 49 -32 53 -66 29 -32 -22 -27
-37 8 -19 38 20 40 19 40 -9 0 -13 7 -29 15 -36 17 -14 11 -30 -11 -30 -8 0
-14 9 -14 20 0 22 -35 46 -45 30 -3 -5 1 -10 10 -10 9 0 13 -4 10 -10 -10 -16
-45 -11 -52 8 -3 9 -17 41 -31 70 -23 49 -26 51 -38 33 -13 -17 -11 -23 16
-49 22 -22 30 -40 30 -66 0 -40 -15 -56 -23 -25 -7 25 -27 16 -27 -12 0 -14 9
-21 30 -25 17 -4 30 -10 30 -15 0 -13 27 -11 50 3 25 16 35 5 20 -22 -10 -19
-17 -21 -48 -15 -21 4 -52 16 -70 27 -33 20 -55 69 -34 76 7 2 12 8 12 13 0
12 -31 11 -49 0 -12 -8 -12 -12 -2 -25 16 -19 7 -36 -17 -30 -11 4 -23 -5 -36
-27 -10 -18 -14 -29 -7 -25 6 4 11 0 11 -9 0 -11 -5 -15 -14 -12 -9 4 -16 -3
-20 -16 -7 -27 -2 -31 22 -18 17 9 21 7 25 -11 11 -41 15 -13 6 41 -10 64 -4
80 21 51 9 -11 26 -20 37 -20 25 0 60 -26 49 -37 -5 -4 -11 -2 -13 5 -6 15
-63 16 -63 1 0 -11 54 -69 65 -69 3 0 3 10 0 21 -5 16 -3 20 6 17 8 -3 14 -15
13 -27 0 -11 5 -21 13 -21 7 0 13 -5 13 -10 0 -17 -27 -22 -49 -10 -29 15 -28
-6 0 -36 l22 -23 37 57 c47 74 97 131 135 154 21 12 25 18 13 18 -26 0 -22 29
5 35 14 4 26 18 33 40 10 32 9 34 -13 37 -35 4 -23 23 15 22 44 -2 40 10 -8
25 -37 11 -63 31 -41 31 6 0 11 9 11 20 0 33 -18 23 -31 -17z m-65 -168 c23
-17 20 -22 -14 -25 -39 -3 -41 -1 -30 20 13 24 19 24 44 5z m-39 -115 c0 -22
-29 -18 -33 3 -3 14 1 18 15 15 10 -2 18 -10 18 -18z"/>
<path d="M828 2438 c17 -17 15 -31 -3 -24 -8 3 -15 2 -15 -2 0 -4 16 -12 35
-18 19 -6 35 -7 35 -3 0 5 -4 9 -10 9 -5 0 -10 11 -10 25 0 19 -5 25 -22 25
-17 0 -19 -3 -10 -12z"/>
<path d="M1083 2432 c-8 -5 -8 -12 2 -25 19 -26 50 -18 52 13 1 16 0 18 -4 7
-4 -17 -6 -17 -22 -3 -9 8 -22 12 -28 8z"/>
<path d="M2250 2421 c0 -5 7 -21 14 -37 8 -15 13 -31 10 -36 -3 -4 -3 -8 1 -8
14 0 25 52 15 71 -11 19 -40 27 -40 10z"/>
<path d="M1217 2373 c-14 -4 -16 -8 -6 -19 9 -11 7 -15 -7 -20 -74 -26 -104
-44 -104 -63 0 -12 -4 -21 -10 -21 -5 0 -10 5 -10 12 0 6 -3 9 -6 5 -11 -11
28 -77 47 -77 20 0 37 -20 17 -21 -7 0 -3 -5 10 -11 30 -15 56 6 32 25 -9 7
-14 19 -12 28 1 9 -4 22 -13 29 -13 10 -15 9 -15 -8 0 -11 -7 -22 -15 -26 -26
-10 -17 37 15 74 l29 35 1 -35 c1 -31 2 -33 13 -18 9 11 18 14 28 7 18 -11 40
-11 59 1 22 14 5 23 -20 10 -16 -8 -25 -9 -33 -1 -7 7 -2 13 17 21 41 15 57
12 63 -11 3 -12 11 -18 19 -15 20 8 17 -12 -4 -25 -13 -8 -17 -20 -14 -45 4
-31 2 -34 -22 -34 -30 0 -32 -7 -9 -32 14 -16 15 -18 0 -18 -9 0 -23 10 -31
22 -19 27 -22 82 -3 75 6 -2 11 -12 9 -21 -3 -15 0 -16 17 -6 18 9 19 14 8 30
-6 11 -17 20 -24 20 -6 0 -18 2 -25 5 -12 5 -14 -7 -14 -59 1 -53 4 -66 19
-70 9 -2 17 -14 17 -25 0 -27 -3 -27 -38 9 -32 32 -66 41 -56 15 4 -8 10 -13
14 -10 11 7 33 -22 25 -35 -3 -6 3 -10 14 -10 12 0 21 -4 21 -10 0 -5 -4 -10
-10 -10 -5 0 -10 -5 -10 -11 0 -6 7 -8 16 -5 10 4 18 -3 26 -24 9 -29 28 -41
28 -20 0 6 16 26 35 46 35 35 43 58 25 69 -5 3 -10 2 -10 -3 0 -5 -11 -9 -25
-9 -15 0 -25 5 -25 13 0 8 4 14 9 14 5 0 11 9 14 20 3 12 14 20 26 20 14 0 19
5 15 15 -5 11 1 15 20 15 17 0 42 14 68 38 33 31 40 43 35 63 -11 40 -23 52
-56 53 -24 1 -30 5 -25 19 3 11 0 17 -10 17 -10 0 -16 -9 -16 -21 0 -19 -2
-20 -17 -8 -15 13 -16 12 -11 -8 4 -13 2 -23 -3 -23 -4 0 -12 15 -17 33 -7 26
-13 32 -38 34 -16 0 -37 -1 -47 -4z m53 -33 c0 -5 -4 -10 -10 -10 -5 0 -10 5
-10 10 0 6 5 10 10 10 6 0 10 -4 10 -10z m130 -46 c0 -8 -4 -12 -10 -9 -5 3
-10 10 -10 16 0 5 5 9 10 9 6 0 10 -7 10 -16z m50 -24 c0 -5 -9 -10 -20 -10
-11 0 -20 5 -20 10 0 6 9 10 20 10 11 0 20 -4 20 -10z m-80 -56 c-30 -35 -36
8 -6 45 9 12 12 10 14 -8 2 -12 -2 -29 -8 -37z m-105 -164 c3 -5 -1 -10 -9
-10 -9 0 -16 5 -16 10 0 6 4 10 9 10 6 0 13 -4 16 -10z"/>
<path d="M1146 2356 c7 -19 38 -22 32 -3 -3 6 -12 13 -21 15 -12 2 -15 -1 -11
-12z"/>
<path d="M2482 2342 c-9 -6 -5 -12 13 -22 18 -10 28 -11 36 -3 24 24 -18 44
-49 25z"/>
<path d="M507 2306 c-24 -17 -29 -18 -37 -6 -7 11 -11 8 -20 -14 -9 -23 -13
-26 -25 -16 -23 19 -20 -13 3 -33 28 -26 40 -21 63 25 l22 42 24 -28 c19 -23
21 -31 12 -43 -7 -8 -20 -12 -29 -10 -9 2 -24 -1 -34 -8 -13 -10 -14 -18 -6
-39 13 -35 13 -56 0 -56 -5 0 -11 10 -11 23 -1 16 -2 18 -6 5 -2 -10 -9 -18
-14 -18 -11 0 -12 -40 -1 -58 17 -26 81 -53 101 -43 20 11 31 5 31 -16 0 -10
-10 -12 -40 -7 -28 5 -43 2 -54 -9 -16 -16 -11 -27 11 -27 8 0 11 5 8 10 -8
13 51 13 76 -1 19 -10 27 -24 43 -76 10 -31 -8 -29 -22 1 -6 13 -20 27 -31 31
-12 3 -21 14 -21 23 0 13 -4 11 -21 -7 -20 -21 -20 -51 1 -51 5 0 10 -8 10
-17 0 -10 14 -38 30 -62 17 -24 30 -41 30 -36 0 4 6 2 14 -4 11 -9 17 -6 30
15 22 32 14 64 -9 40 -8 -8 -15 -21 -15 -28 0 -7 -16 4 -36 25 -28 30 -35 43
-30 63 l7 25 26 -33 c15 -18 29 -35 31 -38 7 -9 31 32 26 44 -8 21 45 50 70
38 20 -10 20 -10 -8 -21 -26 -10 -28 -15 -23 -49 4 -24 1 -43 -8 -55 -20 -27
-8 -47 28 -47 l30 0 -23 -25 c-28 -29 -38 -32 -36 -7 1 12 -7 18 -26 20 -16 2
-28 -1 -28 -6 0 -11 75 -62 91 -62 8 0 9 -4 0 -13 -8 -10 -5 -18 12 -34 28
-24 67 -15 67 15 0 11 7 25 15 32 9 7 13 15 10 18 -9 9 -45 -31 -45 -50 0 -11
-4 -16 -10 -13 -5 3 -10 13 -10 22 0 9 -8 25 -17 35 -18 20 -5 46 17 33 9 -6
9 -10 -1 -16 -8 -5 -9 -9 -3 -9 19 0 49 28 49 47 0 12 7 18 23 17 12 0 22 3
22 8 0 4 5 8 10 8 16 0 12 -46 -5 -60 -8 -7 -13 -16 -10 -20 3 -4 -2 -13 -10
-20 -7 -6 -12 -17 -9 -25 3 -7 -10 -24 -28 -38 l-32 -26 26 -10 c14 -5 34 -20
43 -33 17 -23 17 -23 9 12 -11 53 -10 73 4 77 8 3 12 -6 12 -26 0 -31 0 -31
20 -11 21 21 60 27 60 10 0 -5 -8 -10 -19 -10 -27 0 -40 -21 -47 -74 -6 -37
-4 -46 8 -46 9 0 18 -9 21 -20 3 -11 12 -20 20 -20 9 0 18 -9 22 -19 3 -11 22
-34 42 -51 27 -24 41 -30 60 -25 22 5 24 3 22 -22 -2 -19 6 -41 24 -65 32 -41
57 -56 51 -30 -1 9 -6 34 -9 55 -6 37 -7 38 -29 24 l-23 -15 10 51 c12 60 12
61 27 52 8 -5 8 -11 -1 -22 -10 -12 -10 -16 2 -24 23 -14 30 -10 20 10 -8 14
-5 23 13 40 12 11 29 21 36 21 9 0 6 -6 -8 -16 -12 -8 -22 -25 -21 -37 0 -12
3 -16 6 -9 6 16 28 15 43 -3 10 -12 9 -15 -6 -16 -18 0 -18 -1 1 -8 11 -5 21
-13 21 -20 3 -24 5 -26 13 -12 5 8 16 11 26 8 24 -10 8 -27 -25 -27 -17 0 -33
7 -39 18 -8 13 -14 15 -27 6 -23 -14 -31 -36 -10 -28 27 10 36 -6 15 -27 -20
-20 -18 -62 3 -84 7 -7 8 -2 3 13 -9 32 13 28 26 -5 6 -17 13 -23 17 -16 5 8
26 10 65 6 57 -6 57 -6 57 -39 0 -21 -6 -37 -17 -43 -16 -9 -16 -12 -3 -21 8
-5 20 -11 25 -13 9 -4 6 -19 -20 -79 -4 -10 1 -24 14 -37 12 -12 21 -27 21
-35 0 -8 5 -18 10 -21 6 -3 10 -17 10 -30 0 -20 6 -24 37 -27 26 -2 39 -8 41
-20 3 -15 -1 -16 -29 -8 -17 5 -36 7 -41 4 -13 -8 1 -24 23 -24 12 0 19 -7 19
-19 0 -10 7 -24 15 -31 8 -7 15 -20 15 -29 1 -10 7 -5 16 12 14 26 14 30 -2
48 -15 16 -15 19 -2 19 27 0 41 -27 33 -66 -6 -35 -7 -36 -43 -30 -41 6 -76
-8 -55 -22 10 -6 10 -12 -2 -28 -27 -35 -15 -75 30 -100 26 -14 35 -87 11 -78
-20 8 -20 -5 0 -34 14 -21 14 -22 -5 -22 -12 0 -21 -5 -21 -11 0 -7 9 -9 23
-6 21 6 21 6 3 -8 -19 -15 -19 -15 5 -15 27 -1 14 -12 -31 -25 -21 -7 -23 -6
-12 7 10 12 10 18 -2 27 -10 9 -15 8 -19 -3 -7 -18 -59 -15 -65 3 -2 7 6 24
19 39 l24 27 -25 -22 c-27 -24 -74 -96 -49 -76 9 7 20 8 28 3 8 -4 19 -6 26
-4 6 3 28 -3 49 -11 36 -15 37 -17 22 -34 -19 -21 -21 -41 -3 -41 7 0 18 14
25 32 9 25 15 29 24 20 9 -9 14 -6 23 11 6 12 17 22 25 22 30 0 30 24 0 53
-32 33 -43 86 -15 76 10 -4 15 0 15 11 0 15 3 15 15 5 12 -10 19 -10 28 -1 16
16 -9 33 -41 27 -17 -2 -35 7 -63 35 -21 21 -39 40 -39 42 0 2 7 18 16 35 17
35 39 44 29 12 -5 -14 -2 -20 9 -20 19 0 21 -21 4 -38 -9 -9 -9 -12 1 -12 8 0
19 -6 25 -14 13 -17 86 -31 86 -17 0 5 -8 11 -17 13 -14 3 -10 9 17 26 l35 22
3 -31 c2 -17 -4 -41 -12 -54 -15 -23 -13 -55 5 -55 4 0 6 6 3 14 -3 8 3 16 15
19 21 5 63 65 58 82 -2 6 -12 12 -22 13 -14 3 -17 -1 -11 -21 7 -28 -11 -48
-20 -23 -12 31 5 66 31 66 29 0 33 20 6 27 -13 3 -18 10 -14 21 5 12 2 14 -11
9 -10 -4 -21 -7 -26 -7 -4 0 -10 -12 -13 -28 -4 -21 -17 -33 -50 -48 l-45 -21
-6 30 c-9 45 -7 57 8 57 9 0 12 7 9 20 -10 37 5 70 32 70 14 0 34 5 44 12 22
13 55 4 48 -15 -2 -6 -11 -11 -21 -9 -9 2 -16 -2 -16 -9 0 -8 -4 -8 -15 1 -12
10 -15 10 -15 -3 0 -22 13 -28 49 -21 21 4 31 12 31 24 0 10 7 24 16 31 9 7
20 24 25 37 6 15 15 22 24 18 12 -4 15 5 15 52 0 33 -5 64 -12 71 -10 11 -10
14 0 18 16 6 15 43 -2 83 -10 24 -15 28 -19 16 -4 -9 -17 -16 -29 -16 -23 0
-23 0 2 -13 27 -13 40 -61 21 -80 -12 -12 -35 38 -25 54 10 16 -23 9 -37 -8
-10 -12 -10 -15 -1 -9 8 5 17 -4 27 -28 9 -20 21 -36 29 -36 8 0 17 -7 20 -16
9 -22 8 -24 -9 -18 -8 4 -15 1 -15 -5 0 -22 -49 -11 -67 14 -10 14 -26 36 -35
48 -18 22 -18 22 -12 -10 10 -53 -13 -39 -24 14 -12 55 -9 63 16 40 10 -10 22
-17 27 -17 4 0 13 -7 20 -17 7 -9 17 -13 24 -9 8 5 7 11 -4 22 -8 9 -15 28
-15 44 0 19 -9 36 -26 49 -25 20 -27 20 -40 4 -16 -22 -28 -12 -19 16 7 22 29
28 40 11 12 -19 26 -11 15 9 -7 15 -5 31 9 64 11 25 24 48 30 51 6 4 11 18 11
31 0 13 5 25 12 27 6 2 8 9 5 15 -9 14 -57 -6 -57 -24 0 -6 -10 -13 -22 -15
-12 -2 -24 -9 -26 -17 -3 -10 0 -12 11 -8 9 3 21 -1 27 -9 7 -8 8 -14 3 -14
-6 0 -8 -10 -6 -23 3 -14 -4 -30 -20 -45 -21 -20 -25 -21 -37 -7 -7 8 -9 22
-6 31 5 13 9 14 21 4 9 -7 18 -10 22 -6 9 9 -29 35 -43 29 -14 -5 -27 24 -14
32 6 4 10 18 10 32 0 25 0 26 -20 8 -19 -18 -20 -17 -20 2 0 11 -8 23 -17 27
-10 3 -24 9 -30 12 -9 4 -13 -4 -13 -23 0 -35 16 -53 46 -53 16 0 21 -5 17
-18 -2 -10 3 -24 11 -31 23 -19 20 -34 -5 -21 -11 7 -23 10 -25 8 -6 -6 27
-88 46 -118 36 -54 32 -150 -5 -150 -8 0 -15 -7 -15 -15 0 -19 14 -19 30 -1
13 16 40 11 40 -8 -1 -20 -38 -56 -59 -56 -14 0 -27 13 -41 40 -24 47 -25 54
-5 46 35 -13 11 105 -45 219 l-29 60 6 -45 c3 -25 14 -54 24 -66 26 -28 24
-31 -17 -44 -42 -14 -51 -9 -31 20 12 18 12 28 1 78 -19 79 -18 88 3 71 15
-13 15 -12 3 8 -12 19 -21 21 -60 18 -25 -2 -36 -2 -25 1 39 12 62 44 31 44
-8 0 -17 15 -20 35 -4 21 -17 41 -31 51 -14 9 -25 24 -25 34 0 12 -9 20 -22
22 -18 2 -22 9 -20 28 4 37 -24 54 -49 29 -26 -26 -49 -25 -41 3 4 17 2 20
-11 15 -10 -4 -17 -1 -17 5 0 6 -3 9 -6 6 -3 -4 -1 -16 6 -27 14 -27 -3 -61
-30 -61 -21 0 -25 16 -11 39 11 17 -17 83 -31 75 -18 -11 -88 7 -88 23 0 13
-3 13 -15 3 -19 -16 -30 -7 -20 17 4 10 7 28 6 41 -3 30 17 28 29 -3 5 -13 18
-30 30 -37 11 -7 20 -19 20 -26 0 -7 5 -10 10 -7 6 4 8 16 4 27 -5 15 0 26 17
39 13 10 18 19 12 19 -18 0 -16 25 3 44 8 9 12 16 7 17 -4 0 -16 2 -26 4 -13
2 -17 -1 -13 -11 8 -20 -11 -54 -29 -54 -17 0 -19 14 -5 40 8 16 4 19 -34 24
-34 5 -45 12 -50 29 -9 34 -7 40 9 33 10 -4 15 1 15 15 0 12 8 23 20 26 11 3
17 9 14 15 -3 5 -12 4 -20 -3 -14 -12 -19 -3 -15 28 1 7 -7 9 -19 6 -11 -3
-27 0 -35 7 -17 14 -20 40 -5 40 6 0 10 -8 10 -17 0 -13 3 -14 12 -5 8 8 5 20
-15 46 -15 19 -27 41 -27 49 0 36 -49 49 -124 34 -32 -7 -38 -6 -33 7 4 10 -1
16 -16 18 -15 2 -29 18 -44 51 -13 26 -25 47 -28 47 -3 0 -17 -7 -30 -16 -36
-24 -32 1 6 33 l30 26 -20 21 c-22 24 -27 46 -11 46 6 0 10 -7 10 -15 0 -22
17 -18 23 5 5 20 47 36 72 26 8 -3 15 -15 15 -27 0 -22 0 -22 -21 -3 -20 18
-21 18 -34 0 -24 -32 -9 -44 40 -33 30 7 42 14 36 21 -5 6 -12 32 -16 57 -8
57 -21 80 -34 61 -15 -25 -64 -10 -81 24 l-15 32 -28 -22z m78 -85 c7 -12 -12
-24 -25 -16 -11 7 -4 25 10 25 5 0 11 -4 15 -9z m-81 -129 c2 -4 1 -14 -4 -21
-13 -21 -40 -5 -40 24 0 22 3 24 19 15 11 -5 22 -14 25 -18z m38 16 c-9 -9
-15 -9 -24 0 -9 9 -7 12 12 12 19 0 21 -3 12 -12z m243 -189 c8 -24 -3 -39
-14 -20 -13 20 -23 -3 -15 -33 3 -14 12 -30 20 -37 16 -13 19 2 3 18 -13 13 5
28 21 18 25 -15 -10 -125 -39 -125 -14 0 -25 41 -13 49 5 3 6 15 2 25 -6 18
-7 18 -23 -4 l-16 -23 1 34 c0 19 -3 44 -7 57 -5 16 -3 22 7 22 8 0 23 9 33
20 23 25 32 25 40 -1z m231 -480 c3 -6 1 -15 -6 -19 -7 -4 -9 -16 -5 -29 8
-25 -19 -30 -29 -5 -13 34 -7 64 13 64 11 0 23 -5 27 -11z m234 -210 c0 -33
-3 -40 -17 -37 -10 2 -17 11 -17 21 1 9 -3 17 -10 17 -10 1 30 40 40 40 2 0 4
-18 4 -41z m40 6 c0 -14 -4 -25 -10 -25 -5 0 -10 11 -10 25 0 14 5 25 10 25 6
0 10 -11 10 -25z m147 -17 c-3 -7 -5 -2 -5 12 0 14 2 19 5 13 2 -7 2 -19 0
-25z m155 -240 c-7 -7 -12 -8 -12 -2 0 14 12 26 19 19 2 -3 -1 -11 -7 -17z
m-172 -18 c0 -5 7 -10 15 -10 19 0 19 -14 0 -30 -18 -15 -9 -33 14 -26 12 5
11 2 -3 -9 -26 -20 -31 -19 -56 7 -24 26 -24 28 -4 56 16 23 34 29 34 12z
m228 -157 c17 -38 15 -43 -14 -43 -19 0 -25 4 -20 15 3 9 0 15 -9 15 -8 0 -15
2 -15 4 0 2 -3 11 -6 20 -5 12 0 16 22 16 22 0 32 -7 42 -27z m-73 -53 c3 -5
-3 -10 -14 -10 -12 0 -21 5 -21 10 0 6 6 10 14 10 8 0 18 -4 21 -10z"/>
<path d="M2788 2300 c-49 -53 -35 -70 56 -70 60 0 73 7 48 27 -16 14 -16 14 1
9 10 -3 28 -6 39 -6 15 0 19 -5 15 -19 -4 -16 2 -20 35 -23 24 -2 43 1 50 9
15 19 28 16 54 -13 29 -31 29 -30 3 -37 -12 -3 -18 -10 -14 -17 5 -8 10 -8 20
0 20 17 33 5 27 -25 -3 -20 0 -25 16 -25 12 0 24 -4 27 -10 3 -5 26 -10 51
-10 24 0 44 -5 44 -10 0 -6 8 -5 19 2 15 9 23 9 35 -1 9 -7 13 -17 10 -22 -7
-12 -76 -11 -111 1 -26 9 -27 9 -9 -5 11 -8 30 -15 42 -15 12 0 34 -7 50 -15
24 -12 30 -12 44 0 21 19 70 30 70 16 0 -6 -6 -11 -13 -11 -7 0 -22 -6 -33
-14 -18 -14 -18 -15 -1 -33 10 -10 32 -18 50 -18 24 0 33 -5 35 -20 4 -19 4
-19 -16 -2 -12 12 -22 14 -26 8 -4 -6 -20 -8 -36 -4 -26 5 -30 3 -30 -17 0
-20 4 -22 30 -16 17 3 30 1 30 -4 0 -6 -18 -10 -40 -10 -28 0 -40 4 -40 14 0
8 -7 16 -15 20 -8 3 -15 13 -15 21 0 9 -4 14 -9 10 -5 -3 -11 4 -13 16 -2 15
-15 26 -41 35 -30 10 -38 11 -35 1 3 -6 19 -16 36 -22 23 -6 32 -15 32 -31 0
-11 9 -29 20 -39 19 -17 19 -19 3 -37 -13 -14 -14 -21 -5 -30 18 -18 15 -38
-5 -39 -14 0 -13 -2 5 -9 12 -5 22 -14 22 -20 0 -5 8 -10 19 -10 24 0 47 -26
29 -33 -7 -2 -10 -8 -6 -12 10 -11 28 4 28 24 0 22 -19 41 -43 41 -10 0 -17 5
-15 13 6 15 58 22 58 8 0 -6 7 -11 15 -11 9 0 12 6 9 15 -4 9 0 15 10 15 10 0
13 6 10 15 -4 8 -1 15 5 15 13 0 3 -83 -11 -88 -13 -6 -9 -38 5 -51 20 -16 27
-4 27 45 0 23 6 53 13 67 12 23 15 24 29 11 24 -24 68 -22 85 3 15 23 15 23
-17 12 -28 -10 -35 -9 -52 9 -24 24 -18 62 6 40 8 -7 12 -16 9 -20 -2 -5 1 -8
7 -8 6 0 16 13 21 30 13 36 32 30 22 -8 -6 -24 -5 -26 10 -13 21 17 21 28 1
48 -11 12 -12 18 -4 23 9 6 9 13 1 29 -12 21 -41 29 -41 11 0 -5 7 -10 16 -10
8 0 12 -4 9 -10 -3 -5 -13 -10 -22 -10 -9 0 -25 -7 -34 -16 -17 -16 -19 -15
-29 10 -13 34 -13 96 0 96 5 0 12 -16 16 -35 7 -39 24 -58 24 -27 0 39 -23 83
-51 97 -37 20 -42 19 -34 -5 11 -33 -6 -44 -21 -14 -11 20 -12 35 -5 56 10 27
-1 49 -14 28 -3 -5 -22 -10 -41 -10 -28 0 -43 8 -70 36 -22 24 -34 31 -34 21
0 -17 -18 -33 -27 -24 -2 3 -2 15 2 26 7 22 39 29 50 11 4 -6 10 -8 15 -5 4 3
22 -6 38 -20 16 -14 38 -25 48 -25 24 0 -71 57 -109 66 -19 4 -34 1 -46 -10
-22 -20 -32 -20 -24 0 3 9 0 20 -8 25 -13 9 -113 4 -166 -7 -18 -3 -23 0 -23
15 0 10 -6 24 -14 30 -11 9 -14 8 -12 -6 2 -28 -33 -28 -43 0 -12 32 -46 47
-38 17 4 -16 -3 -24 -36 -40 -40 -20 -42 -20 -55 -3 -12 16 -9 18 27 21 43 3
49 10 29 30 -18 18 -30 14 -60 -18z m342 -70 c0 -11 -4 -20 -10 -20 -5 0 -10
9 -10 20 0 11 5 20 10 20 6 0 10 -9 10 -20z m40 0 c0 -11 -4 -20 -10 -20 -5 0
-10 9 -10 20 0 11 5 20 10 20 6 0 10 -9 10 -20z m10 -55 c7 -9 19 -14 27 -11
9 4 13 -3 13 -23 0 -34 -20 -45 -55 -29 -25 11 -35 38 -14 38 6 0 9 9 6 20 -6
24 5 26 23 5z m103 -34 c-3 -23 7 -27 24 -10 15 15 76 1 69 -16 -2 -7 0 -17 6
-23 14 -14 1 -32 -23 -32 -12 0 -23 10 -29 25 -7 19 -17 25 -39 25 -37 0 -59
24 -41 45 17 21 36 13 33 -14z m127 -142 c0 -5 -7 -9 -15 -9 -15 0 -20 12 -9
23 8 8 24 -1 24 -14z m120 -60 c0 -6 -4 -7 -10 -4 -5 3 -10 11 -10 16 0 6 5 7
10 4 6 -3 10 -11 10 -16z m-72 -48 c3 -8 -1 -12 -9 -9 -7 2 -15 10 -17 17 -3
8 1 12 9 9 7 -2 15 -10 17 -17z m-80 -14 c12 -1 21 -6 19 -12 -5 -15 -66 -18
-83 -4 -23 19 -16 32 14 24 15 -4 37 -7 50 -8z"/>
<path d="M3166 2153 c-11 -11 -6 -23 9 -23 8 0 15 4 15 9 0 13 -16 22 -24 14z"/>
<path d="M410 2311 c0 -5 7 -12 16 -15 14 -5 15 -4 4 9 -14 17 -20 19 -20 6z"/>
<path d="M780 2300 c0 -11 0 -23 -1 -27 0 -4 4 -9 10 -11 6 -2 11 10 11 27 0
17 -4 31 -10 31 -5 0 -10 -9 -10 -20z"/>
<path d="M869 2303 c-13 -16 -12 -17 4 -4 9 7 17 15 17 17 0 8 -8 3 -21 -13z"/>
<path d="M3035 2290 c28 -12 45 -12 45 0 0 6 -15 10 -32 9 -28 0 -30 -2 -13
-9z"/>
<path d="M510 2250 c0 -5 5 -10 10 -10 6 0 10 5 10 10 0 6 -4 10 -10 10 -5 0
-10 -4 -10 -10z"/>
<path d="M2176 2211 c-17 -18 -17 -22 1 -70 19 -55 14 -68 -26 -73 -20 -3 -26
4 -39 40 -10 31 -17 41 -25 33 -7 -7 -6 -15 3 -25 7 -9 10 -23 6 -31 -3 -9 0
-15 10 -15 11 0 14 -6 10 -16 -4 -12 0 -15 17 -12 32 4 34 -15 3 -30 -33 -16
-33 -24 0 -39 32 -15 50 -7 32 14 -10 13 -7 20 21 42 29 24 32 30 22 49 -9 18
-8 23 9 32 20 11 50 59 50 82 0 9 -3 9 -12 0 -20 -20 -38 -14 -38 13 0 30 -20
33 -44 6z m24 -52 c0 -5 -4 -9 -10 -9 -5 0 -10 7 -10 16 0 8 5 12 10 9 6 -3
10 -10 10 -16z"/>
<path d="M417 2203 c-3 -5 -1 -17 4 -28 7 -17 8 -17 8 8 1 27 -4 34 -12 20z"/>
<path d="M1392 2170 c-41 -30 -57 -58 -26 -46 9 3 20 6 25 6 5 0 9 7 9 16 0
10 6 14 14 11 16 -6 36 11 36 30 0 20 -13 16 -58 -17z"/>
<path d="M3420 2156 c0 -2 8 -10 18 -17 15 -13 16 -12 3 4 -13 16 -21 21 -21
13z"/>
<path d="M647 2113 c-17 -17 -4 -32 31 -36 32 -3 34 -5 15 -12 -13 -4 -23 -14
-23 -22 0 -8 5 -11 10 -8 6 3 10 -1 10 -11 0 -19 37 -54 57 -54 24 0 10 34
-21 48 -20 10 -25 17 -17 25 16 16 14 30 -9 55 -21 22 -41 28 -53 15z"/>
<path d="M580 2101 c0 -5 7 -14 15 -21 8 -7 12 -16 9 -21 -6 -10 24 -25 32
-16 8 7 -24 54 -42 61 -8 3 -14 2 -14 -3z"/>
<path d="M1389 2103 c-18 -4 -29 -32 -29 -76 0 -24 -3 -27 -20 -22 -25 8 -27
-10 -2 -24 16 -9 16 -11 -3 -25 -27 -21 -38 -20 -32 4 6 23 -3 26 -21 8 -16
-16 -15 -28 3 -28 7 0 18 -7 23 -16 7 -13 13 -11 36 17 15 17 30 45 33 60 3
16 9 29 13 29 4 0 10 7 13 14 4 11 1 13 -10 9 -11 -4 -14 -2 -11 8 3 8 13 13
22 13 10 -1 16 6 16 17 0 19 -2 20 -31 12z"/>
<path d="M2351 2087 c-1 -9 -6 -26 -13 -37 -11 -16 -9 -23 10 -40 12 -12 27
-18 32 -15 5 3 21 -5 35 -19 14 -14 32 -23 40 -20 11 5 15 -2 15 -25 0 -35 2
-36 33 -20 l21 12 -24 10 -25 10 24 6 24 6 -27 12 c-30 15 -35 34 -6 26 11 -3
20 -1 20 5 0 13 -48 52 -65 52 -6 0 -20 9 -30 20 -22 25 -37 26 -28 3 10 -27
53 -65 53 -48 0 8 5 15 10 15 15 0 12 -26 -5 -40 -23 -19 -75 8 -76 40 0 14
-4 34 -9 45 -7 17 -9 18 -9 2z"/>
<path d="M625 2010 c-8 -13 5 -13 25 0 13 8 13 10 -2 10 -9 0 -20 -4 -23 -10z"/>
<path d="M2308 1973 c4 -23 2 -25 -17 -20 -27 7 -27 -4 -1 -21 24 -15 25 -33
4 -74 l-16 -31 -12 24 c-9 16 -10 30 -4 42 5 10 7 21 4 25 -13 12 -20 -11 -20
-68 -1 -41 -5 -60 -13 -60 -19 0 -16 -24 6 -49 16 -19 23 -21 40 -11 23 12 27
25 11 35 -5 3 -10 -1 -10 -9 0 -9 -5 -16 -11 -16 -6 0 -9 16 -7 37 2 28 8 39
22 41 14 3 17 0 13 -12 -5 -13 -3 -15 12 -7 10 6 23 16 29 24 10 12 8 13 -13
9 -18 -3 -25 0 -25 12 0 9 7 16 15 16 8 0 15 7 15 15 0 8 5 15 10 15 6 0 10
-7 10 -15 0 -8 5 -15 10 -15 20 0 10 35 -16 57 -22 19 -25 25 -14 38 10 12 10
18 0 30 -19 23 -28 18 -22 -12z"/>
<path d="M3302 1984 c9 -9 21 -13 28 -9 14 9 -5 25 -30 25 -12 0 -12 -3 2 -16z"/>
<path d="M2366 1953 c-6 -14 -5 -15 5 -6 7 7 10 15 7 18 -3 3 -9 -2 -12 -12z"/>
<path d="M3220 1958 c0 -9 5 -20 10 -23 13 -8 13 5 0 25 -8 13 -10 13 -10 -2z"/>
<path d="M2397 1938 c-4 -12 -7 -49 -7 -81 0 -49 -3 -60 -19 -64 -10 -2 -35
-24 -55 -49 -32 -38 -42 -44 -75 -44 -39 0 -72 -22 -51 -35 20 -12 11 -45 -12
-45 -16 0 -19 -3 -11 -11 16 -16 31 -4 48 37 13 32 35 47 35 23 0 -8 5 -7 15
1 20 17 24 12 18 -27 -6 -35 -29 -45 -36 -15 -3 13 -7 10 -16 -13 -11 -27 -10
-31 13 -48 14 -10 26 -23 26 -29 0 -11 -60 -1 -75 13 -12 11 -35 12 -35 0 0
-4 21 -17 47 -27 27 -11 51 -20 55 -22 5 -2 8 3 8 12 0 9 7 16 16 16 10 0 14
-6 10 -15 -5 -15 9 -22 17 -7 12 20 16 62 7 62 -5 0 -9 -6 -7 -12 1 -7 -5 -13
-13 -13 -20 0 -25 32 -10 61 7 12 10 29 7 37 -8 20 8 41 26 34 12 -4 14 -15
10 -40 -3 -20 -1 -37 6 -41 6 -4 11 -2 11 3 0 6 8 11 18 12 13 0 12 3 -5 11
-13 6 -23 15 -23 21 0 5 10 7 23 4 21 -6 21 -6 3 9 -24 17 -13 31 29 36 19 2
31 9 33 21 4 17 2 17 -27 3 -38 -20 -41 -20 -41 2 0 10 -6 24 -12 30 -10 10
-10 15 2 22 8 5 22 10 31 10 20 0 29 28 29 93 0 54 19 57 21 4 2 -31 2 -31 6
-4 3 17 -3 40 -15 58 -19 31 -19 31 -25 7z m-62 -238 c-6 -10 -35 -14 -35 -5
0 3 6 14 12 25 11 16 14 17 21 5 4 -8 5 -20 2 -25z m-70 -110 c-3 -5 -13 -10
-21 -10 -8 0 -12 5 -9 10 3 6 13 10 21 10 8 0 12 -4 9 -10z"/>
<path d="M1092 1920 c3 -8 11 -14 17 -12 6 1 17 -9 23 -23 6 -14 16 -25 21
-25 14 0 -16 41 -43 59 -20 13 -22 13 -18 1z"/>
<path d="M2465 1837 c6 -32 5 -35 -13 -30 -14 3 -22 -1 -26 -15 -4 -11 -13
-23 -21 -26 -8 -3 -15 -13 -15 -22 0 -15 4 -14 25 6 21 20 27 21 38 10 10 -10
9 -12 -3 -8 -13 5 -15 -1 -12 -28 4 -29 0 -35 -22 -44 -14 -5 -26 -15 -26 -22
0 -18 15 -40 26 -39 5 1 9 -8 9 -19 0 -11 -4 -19 -10 -17 -5 1 -9 6 -7 11 2 5
-4 6 -13 2 -9 -3 -21 -6 -26 -6 -5 0 -9 -7 -9 -16 0 -11 5 -14 16 -10 8 3 24
2 34 -4 22 -12 30 4 30 56 0 20 7 58 17 86 11 35 13 56 6 66 -7 11 -4 21 8 33
18 18 16 54 -3 65 -6 4 -7 -8 -3 -29z"/>
<path d="M3570 1820 c-17 -11 -4 -30 21 -30 11 0 17 -4 14 -10 -3 -5 -22 -10
-42 -10 -24 0 -45 -8 -61 -22 l-24 -23 7 33 c5 26 3 32 -10 32 -13 0 -16 -8
-13 -37 l3 -38 53 1 c60 1 72 -20 23 -39 -16 -6 -35 -21 -42 -34 -9 -17 -15
-20 -25 -12 -11 9 -11 14 2 27 15 14 15 17 -2 29 -22 16 -45 14 -52 -5 -2 -7
2 -10 12 -6 23 9 20 -13 -3 -26 -26 -14 -28 -13 -36 13 l-8 22 -4 -22 c-3 -16
-12 -23 -27 -23 -31 0 -54 26 -37 43 9 9 14 9 20 -2 6 -10 10 -10 16 -1 14 23
-12 34 -40 16 -35 -23 -40 -16 -18 23 17 31 17 32 -1 46 -27 21 -50 20 -38 -1
6 -12 2 -23 -15 -40 -12 -13 -23 -29 -22 -36 0 -7 5 -3 11 10 6 12 17 22 25
22 18 0 17 -71 -2 -96 -8 -10 -15 -22 -15 -26 0 -12 53 -9 70 3 12 8 7 9 -17
6 -35 -4 -45 6 -17 17 9 4 28 -1 42 -10 18 -12 27 -13 30 -6 7 23 22 11 16
-13 -4 -15 -2 -25 5 -25 6 0 11 9 11 19 0 11 5 23 10 26 6 3 10 1 10 -4 0 -6
5 -11 10 -11 6 0 10 7 10 15 0 8 5 15 10 15 6 0 10 -4 10 -10 0 -5 7 -10 15
-10 8 0 15 -6 15 -14 0 -9 -21 -21 -54 -30 -46 -14 -58 -14 -81 -2 -26 14 -65
11 -65 -4 0 -5 6 -11 13 -13 9 -4 9 -8 -2 -15 -12 -9 -12 -13 2 -27 10 -9 17
-21 17 -26 0 -6 5 -7 10 -4 6 4 8 15 5 26 -7 21 5 25 22 8 9 -9 8 -18 -4 -35
-15 -24 -15 -24 25 -24 42 0 92 30 92 56 0 8 9 14 21 14 11 0 17 5 14 10 -3 6
-15 10 -26 10 -10 0 -19 5 -19 10 0 14 33 13 48 -2 9 -9 12 -6 12 15 0 29 1
31 49 87 41 47 41 17 1 -38 -17 -23 -28 -42 -25 -42 15 0 65 87 65 113 0 17 8
36 18 43 16 13 16 13 -1 14 -17 0 -17 2 -3 22 9 12 16 27 16 33 0 16 -35 34
-50 25z m-30 -81 c0 -6 -4 -7 -10 -4 -5 3 -10 11 -10 16 0 6 5 7 10 4 6 -3 10
-11 10 -16z m-150 -214 c8 -9 8 -15 2 -15 -18 0 -42 12 -42 21 0 14 26 10 40
-6z m35 -45 c-3 -5 -13 -10 -21 -10 -8 0 -12 5 -9 10 3 6 13 10 21 10 8 0 12
-4 9 -10z"/>
<path d="M3490 1810 c0 -5 9 -10 21 -10 11 0 17 5 14 10 -3 6 -13 10 -21 10
-8 0 -14 -4 -14 -10z"/>
<path d="M940 1702 c0 -18 5 -32 10 -32 6 0 8 11 4 28 -10 39 -14 40 -14 4z"/>
<path d="M3380 1710 c0 -5 7 -10 15 -10 8 0 15 5 15 10 0 6 -7 10 -15 10 -8 0
-15 -4 -15 -10z"/>
<path d="M888 1673 c7 -3 16 -2 19 1 4 3 -2 6 -13 5 -11 0 -14 -3 -6 -6z"/>
<path d="M1221 1627 c-8 -11 -5 -16 14 -25 20 -9 25 -9 25 2 0 23 -26 38 -39
23z"/>
<path d="M3208 1628 c-4 -10 -5 -24 -2 -31 3 -8 -2 -20 -10 -27 -17 -13 -12
-35 5 -24 7 4 9 -7 7 -27 -3 -39 -19 -44 -33 -11 -5 12 -13 22 -17 22 -12 0
-9 -13 7 -37 14 -20 14 -23 -4 -33 -31 -16 -44 -12 -38 12 6 20 5 20 -10 5
-10 -10 -18 -36 -20 -63 -2 -38 -9 -54 -35 -81 -38 -40 -48 -41 -48 -8 0 18 5
25 19 25 21 0 31 19 30 53 0 12 -3 16 -6 10 -2 -7 -9 -13 -15 -13 -5 0 -21 -9
-35 -20 -14 -11 -34 -20 -44 -20 -11 0 -19 -7 -19 -15 0 -11 7 -14 25 -9 22 5
26 2 31 -25 4 -17 8 -31 11 -31 10 0 50 24 70 43 31 27 38 17 12 -16 l-20 -27
26 -12 c14 -6 22 -14 18 -17 -5 -3 -14 -18 -20 -33 -12 -26 -11 -27 34 -42 26
-9 48 -14 51 -11 9 9 -8 35 -23 35 -9 0 -13 -4 -10 -10 3 -5 1 -10 -6 -10 -7
0 -9 9 -5 28 4 15 10 42 14 60 9 41 26 46 30 9 4 -30 31 -35 40 -8 3 9 0 11
-9 6 -8 -5 -6 1 4 12 17 20 17 21 -12 26 -17 4 -31 14 -33 24 -3 13 -9 8 -24
-21 l-19 -39 -6 44 c-3 24 -9 52 -14 62 -6 14 -2 17 19 17 21 0 26 5 26 26 0
24 3 26 30 22 25 -4 30 -2 25 11 -3 9 4 5 15 -9 11 -14 20 -28 20 -32 0 -4 7
-5 15 -2 9 4 15 0 15 -9 0 -27 -18 -29 -50 -6 -16 13 -33 19 -37 15 -5 -4 1
-14 11 -22 18 -13 17 -14 -20 -15 -21 0 -32 -3 -24 -6 8 -2 22 -7 30 -10 46
-17 130 13 130 46 0 13 -2 13 -9 2 -6 -9 -10 -10 -16 -2 -4 7 -2 18 4 25 8 10
7 17 -4 26 -8 7 -15 19 -15 26 0 8 -5 14 -11 14 -7 0 -9 -10 -5 -25 7 -28 -5
-33 -23 -11 -7 8 -10 28 -7 48 8 42 -7 140 -16 116z"/>
<path d="M1444 1552 c27 -31 11 -40 -21 -11 l-26 24 16 -24 c8 -13 13 -30 10
-37 -3 -8 0 -14 6 -14 6 0 11 -4 11 -10 0 -5 -7 -10 -15 -10 -7 0 -18 -7 -22
-15 -8 -13 -12 -13 -30 5 -12 11 -24 16 -27 11 -3 -4 8 -21 24 -36 28 -27 31
-27 48 -12 10 9 24 17 30 17 14 0 42 40 42 59 0 11 -3 10 -13 -4 -11 -14 -16
-15 -22 -5 -5 8 -2 18 8 25 15 11 14 14 -11 36 -25 22 -25 22 -8 1z"/>
<path d="M1027 1545 c-17 -12 -16 -14 9 -34 30 -23 53 -29 36 -8 -6 7 -15 23
-19 34 -7 19 -10 20 -26 8z"/>
<path d="M1089 1535 c36 -52 61 -80 61 -69 0 6 -18 31 -41 55 -26 28 -33 33
-20 14z"/>
<path d="M1350 1550 c0 -9 7 -26 16 -38 13 -18 19 -21 30 -11 8 6 14 15 14 20
0 14 -30 10 -31 -3 0 -7 -7 1 -14 17 -8 17 -14 23 -15 15z"/>
<path d="M2410 1521 c0 -5 -10 -11 -21 -14 -18 -5 -21 -11 -15 -38 3 -18 1
-38 -5 -45 -13 -15 -79 -19 -79 -5 0 13 27 21 46 14 11 -4 15 -1 13 11 -2 9
-6 16 -9 15 -3 -1 -15 3 -26 9 -19 10 -26 8 -47 -14 -25 -25 -47 -25 -47 -1 0
22 -49 60 -68 52 -15 -6 -14 -8 6 -16 12 -4 22 -13 22 -19 0 -5 7 -10 15 -10
17 0 20 -26 4 -35 -5 -4 -8 -12 -6 -18 2 -7 0 -20 -5 -29 -5 -12 -5 -18 1 -18
6 0 13 -11 17 -25 5 -20 9 -23 19 -15 9 8 15 8 20 0 3 -5 11 -10 18 -10 8 0 8
3 -1 12 -7 7 -12 20 -12 30 0 21 -11 23 -29 6 -10 -11 -12 -8 -9 11 3 27 53
69 65 56 5 -4 2 -10 -4 -12 -15 -6 -17 -23 -3 -23 10 0 50 -35 47 -42 -1 -2
12 10 30 28 17 18 37 51 43 73 6 23 14 40 18 37 4 -2 12 7 19 20 9 19 8 24 -3
24 -8 0 -14 -4 -14 -9z"/>
<path d="M1277 1463 c-14 -13 -7 -25 8 -13 12 10 16 9 21 -3 3 -9 3 -21 0 -26
-10 -15 47 -91 63 -85 7 2 29 -11 48 -31 19 -19 38 -35 43 -35 6 0 10 20 10
45 0 50 14 58 43 25 9 -11 27 -20 39 -20 17 -1 12 -5 -15 -15 -21 -7 -42 -16
-45 -20 -9 -8 35 -45 54 -45 23 0 27 21 5 27 -33 9 -25 26 9 19 30 -5 70 10
70 27 0 4 -16 15 -35 24 -36 17 -46 33 -20 33 8 0 15 4 15 8 0 18 -14 21 -34
7 -28 -20 -53 -19 -73 5 -20 23 -53 27 -53 5 0 -8 7 -15 15 -15 11 0 15 -11
15 -42 l0 -43 -19 25 c-11 13 -17 28 -15 32 3 4 -2 8 -10 8 -8 0 -20 9 -26 20
-6 11 -18 20 -27 20 -13 0 -14 -3 -5 -12 24 -24 12 -31 -13 -8 -20 19 -22 26
-13 38 10 11 7 18 -12 33 -27 20 -33 22 -43 12z m273 -113 c0 -5 -7 -10 -16
-10 -8 0 -12 5 -9 10 3 6 10 10 16 10 5 0 9 -4 9 -10z m60 -34 c0 -3 -4 -8
-10 -11 -5 -3 -10 -1 -10 4 0 6 5 11 10 11 6 0 10 -2 10 -4z"/>
<path d="M1485 1429 c10 -32 10 -32 34 -17 24 15 27 28 7 28 -8 0 -22 3 -31 7
-14 5 -16 2 -10 -18z"/>
<path d="M1050 1400 c0 -5 5 -10 10 -10 6 0 10 5 10 10 0 6 -4 10 -10 10 -5 0
-10 -4 -10 -10z"/>
<path d="M2145 1390 c3 -5 13 -10 21 -10 8 0 12 5 9 10 -3 6 -13 10 -21 10 -8
0 -12 -4 -9 -10z"/>
<path d="M2390 1393 c0 -5 7 -18 15 -29 15 -18 15 -18 13 5 -3 23 -28 44 -28
24z"/>
<path d="M2121 1351 c-9 -16 -8 -18 9 -14 21 6 26 18 11 28 -6 3 -15 -3 -20
-14z"/>
<path d="M2357 1353 c-2 -5 -2 -25 0 -45 4 -28 10 -38 24 -38 24 0 33 16 13
24 -12 4 -14 14 -9 36 5 23 3 30 -9 30 -8 0 -17 -3 -19 -7z"/>
<path d="M2280 1331 c0 -6 5 -13 10 -16 6 -3 10 1 10 9 0 9 -4 16 -10 16 -5 0
-10 -4 -10 -9z"/>
<path d="M2160 1319 c0 -6 -9 -9 -20 -6 -11 3 -20 1 -20 -4 0 -4 9 -13 20 -19
25 -13 26 -27 3 -33 -14 -4 -12 -5 5 -6 27 -1 30 -21 2 -21 -14 0 -20 -7 -20
-21 0 -13 -4 -18 -12 -13 -7 4 -1 -6 13 -22 15 -16 32 -39 38 -51 10 -20 9
-23 -6 -23 -15 -1 -15 -4 6 -20 18 -16 21 -23 12 -34 -9 -11 -5 -11 24 -2 38
12 44 21 20 30 -8 3 -15 12 -15 21 0 8 -4 15 -10 15 -5 0 -10 9 -10 20 0 23 7
24 47 10 28 -10 28 -9 6 6 -15 11 -23 27 -23 45 0 16 -3 29 -6 29 -15 0 -33
-30 -28 -45 5 -13 2 -16 -12 -13 -28 5 -31 38 -4 45 19 5 21 11 17 38 -3 17
-1 38 3 46 5 8 4 19 -2 26 -13 16 -28 17 -28 2z"/>
<path d="M1373 1299 c15 -23 30 -25 25 -2 -2 9 -11 17 -20 19 -14 2 -15 -1 -5
-17z"/>
<path d="M2301 1301 c-8 -5 -15 -19 -16 -32 -2 -29 -25 -38 -25 -10 0 28 -19
36 -38 16 -13 -13 -14 -19 -4 -22 6 -3 12 -20 12 -39 0 -19 5 -34 10 -34 6 0
10 9 10 19 0 13 8 21 23 23 17 2 22 9 20 31 -1 22 2 27 12 23 10 -4 15 1 15
14 0 23 0 23 -19 11z"/>
<path d="M2865 1303 c-54 -7 -62 -13 -35 -27 14 -7 29 -9 35 -4 15 13 28 9 16
-6 -6 -7 -39 -17 -73 -20 -46 -6 -58 -10 -49 -19 9 -9 16 -9 30 0 14 9 29 9
53 3 47 -14 106 -12 111 3 3 9 9 9 28 0 33 -17 57 -20 59 -8 0 6 -10 12 -22
14 -13 1 -26 8 -30 14 -5 8 -17 6 -43 -6 -41 -19 -55 -21 -55 -7 0 6 7 10 16
10 11 0 14 8 12 27 -3 29 -9 32 -53 26z"/>
<path d="M2950 1300 c0 -5 7 -10 16 -10 8 0 12 5 9 10 -3 6 -10 10 -16 10 -5
0 -9 -4 -9 -10z"/>
<path d="M514 1279 c-3 -6 -26 -19 -51 -30 -26 -11 -47 -27 -50 -39 -3 -13
-14 -20 -29 -20 -32 0 -38 -16 -14 -40 32 -32 13 -46 -20 -15 l-28 27 -41 -37
c-23 -21 -41 -42 -40 -49 0 -7 2 -6 6 2 2 6 14 12 26 12 22 -1 22 -1 3 -15
-19 -15 -19 -15 2 -15 27 0 29 -16 3 -30 -26 -13 -32 -13 -28 3 1 7 -10 13
-26 15 -39 5 -37 -29 3 -46 17 -8 30 -20 30 -28 0 -17 12 -18 28 -2 16 16 15
31 0 23 -7 -4 -2 3 12 15 21 19 25 20 28 6 4 -19 7 -20 31 -4 15 9 22 8 35 -5
9 -8 16 -22 16 -31 0 -21 -21 -31 -31 -15 -6 10 -9 6 -9 -13 0 -25 3 -27 30
-21 25 5 30 2 30 -14 0 -10 -6 -28 -14 -39 -9 -11 -12 -29 -9 -44 6 -22 5 -24
-10 -11 -11 8 -17 28 -17 52 0 31 -6 42 -33 63 -41 32 -57 33 -57 5 0 -17 4
-20 24 -15 16 4 29 -1 42 -15 17 -19 17 -20 -4 -26 -12 -3 -22 -11 -22 -19 0
-7 -7 -17 -16 -22 -14 -8 -14 -10 -1 -15 9 -3 19 3 26 19 14 32 27 30 34 -3 9
-45 28 -63 60 -56 28 6 38 33 12 33 -8 0 -15 7 -15 15 0 8 6 15 14 15 9 0 15
21 20 72 5 59 4 73 -9 80 -23 13 -20 41 3 29 14 -8 20 -4 31 20 7 16 10 38 6
49 -5 14 -2 20 9 20 9 0 16 5 16 11 0 7 -10 9 -26 5 -19 -5 -30 -2 -39 10 -27
37 -47 -26 -26 -81 10 -25 3 -45 -15 -45 -7 0 -11 6 -8 14 3 8 1 17 -5 21 -6
3 -11 -1 -11 -11 0 -13 -3 -14 -15 -4 -8 7 -15 21 -15 32 0 15 5 18 21 13 21
-7 22 -5 17 39 -5 40 -3 46 16 52 11 4 23 6 25 5 2 -2 7 3 11 9 6 9 11 7 19
-7 12 -23 61 -20 61 4 0 7 9 31 20 53 11 22 20 42 20 45 0 10 -49 5 -56 -6z
m26 -7 c0 -4 -5 -13 -11 -19 -6 -6 -12 -19 -13 -29 -3 -22 -36 -32 -36 -11 0
17 38 67 51 67 5 0 9 -4 9 -8z m-93 -154 c-3 -8 -6 -5 -6 6 -1 11 2 17 5 13 3
-3 4 -12 1 -19z m-100 -41 c2 -30 0 -38 -7 -27 -11 18 -13 70 -2 70 4 0 8 -19
9 -43z m133 -7 c-20 -13 -40 -13 -40 0 0 6 12 10 28 10 21 0 24 -2 12 -10z"/>
<path d="M3280 1270 c0 -14 -7 -20 -22 -20 -23 -1 -23 -1 -3 -16 13 -9 21 -11
23 -4 3 8 8 7 18 -1 22 -18 16 -29 -16 -29 -19 0 -30 -5 -30 -14 0 -23 36 -29
70 -11 30 15 50 13 50 -6 0 -5 -11 -9 -24 -9 -14 0 -28 -4 -31 -10 -3 -5 -17
-10 -31 -10 -13 0 -24 -5 -24 -11 0 -8 -5 -7 -15 1 -9 7 -18 11 -20 8 -3 -2
25 -31 62 -63 l66 -59 -6 33 c-4 18 -7 43 -7 55 0 17 -2 18 -10 6 -5 -8 -7
-23 -4 -32 8 -26 -15 -22 -26 5 -7 17 -4 27 16 45 31 27 44 28 44 2 0 -12 9
-22 24 -26 38 -9 64 4 71 35 5 22 12 29 31 29 26 0 30 -8 12 -26 -8 -8 -8 -15
-1 -24 6 -7 13 -22 16 -33 3 -15 5 -13 6 8 1 27 18 66 34 78 12 9 -21 32 -37
26 -8 -3 -21 4 -29 17 -21 31 -88 49 -151 41 -42 -6 -49 -5 -38 6 16 17 15 29
-3 29 -8 0 -15 -9 -15 -20z m162 -38 c14 -6 29 -16 33 -21 8 -14 -1 -14 -26
-1 -15 8 -19 7 -19 -4 0 -8 5 -16 12 -18 14 -5 2 -58 -13 -58 -6 0 -8 10 -4
23 6 22 6 22 -15 -2 -25 -29 -38 -21 -22 14 16 35 16 53 0 37 -8 -8 -16 -6
-30 10 -10 12 -18 24 -18 27 0 10 72 5 102 -7z"/>
<path d="M2710 1249 c0 -18 -3 -20 -12 -11 -7 7 -19 12 -27 12 -9 -1 -4 -7 12
-16 15 -8 32 -12 37 -9 13 8 13 32 0 40 -6 3 -10 -4 -10 -16z"/>
<path d="M3043 1254 c15 -8 27 -20 27 -26 0 -6 3 -9 6 -6 12 12 -17 48 -39 48
-20 -1 -20 -2 6 -16z"/>
<path d="M2343 1230 c-10 -11 -25 -20 -35 -20 -10 0 -18 -7 -18 -15 0 -8 -7
-15 -15 -15 -19 0 -19 -14 0 -30 17 -14 17 -15 33 23 14 32 54 37 84 10 11
-10 18 -12 18 -4 0 6 -7 14 -15 17 -20 8 -19 24 1 24 14 0 14 3 4 15 -17 21
-37 19 -57 -5z"/>
<path d="M2595 1220 c-19 -8 -19 -9 3 -9 12 -1 22 4 22 9 0 6 -1 10 -2 9 -2 0
-12 -4 -23 -9z"/>
<path d="M3200 1209 c0 -16 20 -49 29 -49 13 0 0 48 -15 54 -8 3 -14 1 -14 -5z"/>
<path d="M1667 1192 c6 -4 14 -19 18 -34 7 -26 5 -27 -24 -23 -25 3 -31 0 -31
-15 0 -10 -5 -20 -10 -22 -7 -2 -5 -16 6 -36 15 -31 43 -40 36 -12 -2 7 -1 19
2 27 5 11 10 11 32 -4 l27 -17 -7 37 c-10 53 -34 107 -49 107 -9 0 -9 -2 0 -8z"/>
<path d="M2335 1180 c-3 -5 1 -10 10 -10 9 0 13 5 10 10 -3 6 -8 10 -10 10 -2
0 -7 -4 -10 -10z"/>
<path d="M2335 1136 c3 -12 -3 -32 -14 -45 l-19 -25 -32 28 c-18 15 -34 25
-36 23 -2 -2 4 -19 14 -38 14 -29 23 -36 45 -35 17 1 29 8 33 19 9 27 31 20
43 -15 12 -34 6 -52 -10 -28 -6 11 -11 12 -16 4 -5 -7 -19 -14 -33 -15 -34 -5
-38 -41 -9 -68 l23 -21 -27 0 c-15 0 -27 -4 -27 -10 0 -10 21 -14 49 -11 7 2
10 -2 6 -8 -9 -16 -71 -13 -89 4 -13 14 -16 13 -26 -6 -19 -34 -23 -13 -7 34
8 24 12 49 8 54 -15 23 -58 43 -92 43 -34 0 -36 -1 -37 -37 -1 -32 0 -34 12
-18 8 11 20 16 30 12 17 -7 23 -37 6 -37 -5 0 -10 6 -10 13 0 8 -3 9 -8 1 -4
-6 -14 -14 -22 -17 -11 -4 -10 -7 7 -12 12 -4 23 -16 25 -28 5 -33 23 -30 24
4 1 34 26 65 44 54 8 -5 6 -11 -6 -19 -14 -11 -16 -23 -10 -72 7 -65 -7 -109
-19 -61 -6 22 -10 25 -21 16 -18 -15 -34 -3 -34 27 0 13 -5 24 -11 24 -8 0 -8
4 0 14 8 10 9 16 1 21 -14 9 -23 -20 -16 -53 4 -15 11 -44 15 -65 11 -48 26
-66 43 -49 7 7 21 12 31 12 11 0 28 11 39 25 11 14 23 23 28 20 8 -5 -10 -64
-19 -63 -4 0 -15 0 -26 -1 -37 -2 6 -21 49 -21 37 0 38 1 20 14 -19 14 -19 15
4 38 12 14 22 30 22 38 0 9 -4 8 -13 -5 -13 -17 -14 -17 -19 3 -5 16 1 23 24
33 39 16 51 3 35 -41 -6 -19 -16 -38 -22 -42 -6 -5 -3 -8 7 -8 9 0 21 8 27 17
5 10 13 15 17 11 4 -4 -5 -23 -20 -43 -15 -19 -23 -35 -19 -35 5 0 14 9 21 20
29 47 37 14 16 -62 -3 -11 0 -18 9 -18 18 0 27 43 27 130 0 69 -15 100 -41 84
-7 -4 -10 -2 -7 7 3 8 18 21 34 29 16 8 31 16 34 18 5 4 -22 22 -33 22 -5 0
-5 -4 -2 -10 3 -5 1 -10 -5 -10 -8 0 -10 9 -6 25 5 19 2 25 -10 25 -8 0 -21 6
-28 13 -13 13 -10 37 5 37 4 0 6 -7 2 -16 -5 -14 -3 -14 14 -3 29 17 53 5 54
-28 1 -23 3 -21 10 12 6 22 7 50 4 63 -3 12 -1 22 5 22 6 0 -4 14 -22 30 -30
27 -31 31 -15 41 24 14 21 26 -8 31 -21 4 -24 2 -20 -16z m-75 -286 c0 -5 -9
-10 -19 -10 -11 0 -23 -4 -26 -10 -12 -20 -26 -10 -15 10 11 20 60 29 60 10z
m-130 -81 c0 -5 -4 -9 -10 -9 -5 0 -10 7 -10 16 0 8 5 12 10 9 6 -3 10 -10 10
-16z"/>
<path d="M2082 1135 c2 -11 10 -20 18 -20 8 0 16 9 18 20 3 17 1 17 -7 5 -10
-13 -12 -13 -22 0 -8 12 -10 12 -7 -5z"/>
<path d="M1245 1133 c17 -3 34 -9 40 -14 14 -14 25 -11 25 6 0 11 -11 15 -47
14 -34 -2 -39 -3 -18 -6z"/>
<path d="M3550 1110 c0 -11 5 -20 10 -20 6 0 10 5 10 11 0 8 5 8 15 -1 13 -10
15 -9 15 9 0 16 -6 21 -25 21 -18 0 -25 -5 -25 -20z"/>
<path d="M2280 1105 c7 -8 16 -12 21 -9 13 8 1 24 -18 24 -13 0 -13 -3 -3 -15z"/>
<path d="M1249 1097 c16 -8 31 -30 42 -62 13 -37 19 -46 24 -32 7 17 4 27 -14
57 -5 8 -12 23 -15 33 -3 11 -15 17 -33 17 l-28 0 24 -13z"/>
<path d="M3475 1100 c-4 -6 -4 -24 0 -40 4 -17 4 -30 1 -30 -3 0 -21 14 -41
31 -21 18 -40 28 -44 23 -12 -13 -20 -104 -10 -104 5 0 9 -8 10 -17 0 -10 5
-3 10 15 5 17 14 32 19 32 16 0 21 -19 9 -38 -10 -15 -9 -24 3 -41 13 -19 17
-20 28 -6 16 19 30 19 30 -1 0 -9 -5 -12 -12 -8 -8 4 -10 3 -5 -2 5 -5 14 -9
20 -9 7 0 12 -7 12 -15 0 -12 -10 -14 -44 -12 -47 4 -49 -11 -4 -29 20 -7 30
-6 43 6 24 21 29 19 26 -12 -3 -31 -36 -43 -61 -23 -19 16 -24 1 -22 -68 1
-56 -14 -106 -36 -123 -4 -3 -3 -17 3 -31 10 -20 9 -31 -4 -57 l-17 -31 31 0
c28 0 30 2 24 28 -4 15 -11 35 -15 44 -15 28 -10 37 18 35 21 -2 28 3 33 23 3
15 17 29 33 34 34 12 36 9 28 -39 -6 -37 -9 -40 -38 -40 -39 0 -47 -8 -34 -33
8 -15 8 -22 -2 -25 -9 -4 -9 -6 1 -6 6 -1 21 8 32 19 25 25 40 25 40 1 0 -11
5 -23 10 -26 6 -3 10 -1 10 5 0 6 4 8 10 5 5 -3 18 -1 29 4 14 8 21 8 24 -2 2
-6 8 -9 12 -5 4 4 5 14 1 23 -4 12 -13 15 -35 10 -23 -5 -29 -2 -34 15 -7 26
2 52 14 44 15 -9 10 21 -11 67 -26 58 -25 67 5 61 20 -3 25 -10 25 -36 0 -18
4 -36 10 -42 5 -5 10 -28 12 -51 2 -31 6 -39 15 -31 20 16 33 -1 26 -35 -5
-27 -3 -30 8 -19 11 10 17 6 35 -24 l22 -36 20 54 c47 127 57 308 16 308 -22
0 -27 21 -8 35 18 14 18 14 1 15 -11 0 -30 9 -44 20 -14 11 -34 20 -45 20 -16
0 -17 -3 -8 -20 14 -27 -3 -27 -30 0 l-20 20 -10 -24 c-5 -13 -17 -26 -27 -29
-16 -4 -15 -5 3 -6 11 0 25 4 32 11 9 9 12 7 12 -11 0 -18 3 -21 13 -12 11 8
17 5 27 -14 7 -14 17 -25 21 -25 4 0 10 -12 14 -27 3 -14 12 -35 19 -45 12
-17 14 -17 31 2 9 10 15 26 12 35 -9 22 -23 19 -32 -7 -7 -21 -8 -20 -12 10
-2 17 -9 32 -15 32 -5 0 -8 6 -5 14 3 7 2 17 -3 22 -5 5 -2 15 6 22 8 7 14 9
14 3 0 -5 16 -32 35 -61 35 -52 44 -93 24 -106 -6 -3 -9 -19 -7 -35 6 -38 -6
-37 -22 1 -7 17 -16 30 -21 30 -13 0 -11 -27 1 -35 8 -5 7 -11 -1 -21 -6 -7
-8 -21 -5 -30 5 -13 9 -14 21 -4 9 7 19 10 23 6 11 -12 -29 -36 -58 -36 -19 0
-30 8 -38 25 -16 34 -15 55 1 55 8 0 13 -10 13 -21 -1 -12 5 -24 12 -26 20 -7
14 25 -10 49 -20 20 -20 22 -3 35 11 7 24 14 29 15 6 0 -10 4 -37 7 -26 3 -48
11 -49 16 -2 16 34 19 43 3 6 -9 9 -5 9 14 0 22 -3 25 -22 20 -21 -5 -22 -4
-9 12 17 21 10 28 -42 41 -38 10 -42 14 -45 45 -2 19 -8 40 -13 45 -7 7 -8 4
-4 -7 4 -10 3 -18 -3 -18 -14 0 -52 118 -39 123 7 2 7 11 2 23 -4 10 -7 29 -6
42 3 23 -4 29 -14 12z m-38 -58 c17 -15 36 -40 42 -55 13 -35 -3 -36 -26 -1
-9 14 -27 30 -40 35 -14 5 -23 17 -23 29 0 26 8 25 47 -8z m13 -92 c0 -5 -4
-10 -10 -10 -5 0 -10 5 -10 10 0 6 5 10 10 10 6 0 10 -4 10 -10z m120 -135 c0
-17 16 -20 25 -5 4 6 11 8 16 5 12 -8 12 -52 -1 -60 -5 -3 -10 -2 -10 3 0 16
-49 20 -67 5 -13 -10 -15 -16 -5 -19 22 -10 13 -29 -38 -72 -41 -36 -50 -40
-50 -24 0 11 7 25 15 32 8 7 15 19 15 26 0 8 6 11 15 8 25 -10 19 42 -7 60
-21 15 -21 16 -3 18 11 0 26 2 32 2 7 1 20 9 30 19 21 21 33 22 33 2z m70
-126 c0 -11 -4 -17 -10 -14 -5 3 -10 13 -10 21 0 8 5 14 10 14 6 0 10 -9 10
-21z m90 -130 c0 -5 -4 -9 -10 -9 -5 0 -10 7 -10 16 0 8 5 12 10 9 6 -3 10
-10 10 -16z"/>
<path d="M2087 1066 c-7 -18 18 -42 28 -26 3 5 1 10 -4 10 -6 0 -11 5 -11 10
0 7 6 7 20 0 16 -9 18 -8 14 5 -8 19 -40 20 -47 1z"/>
<path d="M3520 1044 c0 -3 14 -10 30 -15 32 -12 38 -27 18 -47 -18 -18 -30
-14 -23 8 5 14 2 20 -9 20 -23 0 -20 -47 3 -60 24 -12 51 -13 71 0 13 8 12 11
-5 24 -17 14 -18 17 -5 26 21 13 34 7 38 -17 5 -31 82 -48 82 -18 0 12 -7 14
-26 9 -22 -6 -25 -4 -22 12 2 11 11 18 21 16 9 -2 17 2 17 8 0 5 -8 10 -18 10
-10 0 -28 8 -42 17 -17 12 -25 13 -28 5 -5 -15 -48 -16 -57 -2 -6 10 -45 14
-45 4z"/>
<path d="M161 998 c0 -7 4 -22 9 -33 8 -18 9 -17 9 7 1 15 -3 30 -9 33 -5 3
-10 0 -9 -7z"/>
<path d="M2234 985 c-3 -13 -1 -37 4 -52 9 -25 10 -23 11 25 1 56 -5 67 -15
27z"/>
<path d="M194 973 c8 -39 -5 -58 -32 -44 -28 15 -32 14 -32 -9 0 -15 7 -20 25
-20 30 0 42 -23 27 -53 l-11 -22 0 22 c-1 25 -30 38 -66 29 -34 -9 -70 -105
-45 -121 6 -4 7 1 3 11 -4 11 -3 15 5 10 6 -3 13 -2 17 4 3 5 1 10 -4 10 -15
0 -14 33 1 48 15 15 45 15 54 0 5 -8 2 -9 -9 -5 -14 5 -17 0 -17 -34 0 -31 -5
-42 -22 -50 -23 -10 -53 -58 -43 -68 3 -2 28 17 55 44 41 41 50 46 56 31 4
-11 0 -22 -15 -32 -11 -8 -21 -20 -21 -26 0 -6 9 -3 20 7 24 21 36 15 22 -12
-6 -10 -8 -31 -5 -46 7 -34 -14 -37 -23 -2 -4 17 -13 25 -27 25 -20 0 -20 0 1
-23 20 -21 21 -30 16 -85 -7 -64 -17 -78 -29 -39 -6 21 -7 21 -17 -6 -13 -37
-7 -41 36 -27 40 13 56 7 56 -19 0 -10 7 -24 15 -31 8 -7 15 -19 15 -27 0 -16
58 -43 77 -36 7 3 13 1 13 -5 0 -5 26 -23 58 -38 43 -22 52 -30 36 -32 -18 -3
-20 -8 -15 -35 6 -30 10 -32 61 -38 30 -3 47 -6 38 -7 -21 -2 -35 -22 -16 -22
8 0 22 6 32 13 17 12 17 14 -2 37 -20 25 -21 25 -51 7 -28 -17 -32 -17 -37 -2
-10 24 5 33 66 41 50 6 54 6 42 -9 -11 -13 -10 -17 10 -28 33 -17 33 -17 9
-43 -19 -20 -21 -28 -12 -44 15 -29 14 -37 -4 -22 -8 7 -15 19 -15 26 0 19
-17 18 -28 -2 -6 -11 -11 -13 -16 -5 -4 6 -16 11 -27 11 -10 0 -19 7 -19 15 0
8 -5 15 -11 15 -6 0 -17 7 -25 15 -17 17 -49 21 -39 5 3 -5 -1 -10 -11 -10
-14 0 -16 7 -12 45 5 41 3 48 -24 70 -16 14 -37 25 -47 25 -9 0 -23 6 -29 12
-17 17 -62 17 -62 0 0 -15 28 -72 36 -72 3 0 2 5 -1 10 -3 6 -2 10 4 10 6 0
13 -11 17 -25 8 -32 33 -53 43 -36 6 9 11 8 21 -4 11 -13 11 -18 2 -24 -23
-14 164 -128 191 -118 7 3 -3 11 -22 19 -40 18 -31 27 21 21 31 -4 37 -9 40
-31 2 -22 10 -28 43 -34 31 -7 42 -5 51 7 6 8 16 15 22 15 7 0 7 9 -1 30 -15
39 3 61 33 42 13 -8 20 -8 20 -2 0 6 -7 13 -15 16 -11 4 -13 14 -8 32 6 25 5
26 -10 10 -9 -9 -17 -20 -17 -24 0 -4 -11 -22 -25 -40 -14 -18 -25 -41 -25
-50 0 -14 -3 -15 -12 -6 -10 10 -9 19 4 42 14 25 15 30 3 30 -20 0 -19 9 5 48
19 31 19 33 3 38 -10 3 -25 10 -33 15 -8 5 -27 14 -42 20 -28 11 -32 23 -19
69 5 18 14 24 35 25 16 0 31 5 33 12 3 8 -6 10 -29 7 -18 -3 -39 0 -47 5 -12
8 -12 12 2 25 8 9 24 16 34 17 13 0 11 4 -9 13 -15 6 -34 20 -41 30 -12 17
-14 17 -20 3 -4 -11 1 -21 14 -27 11 -6 17 -15 14 -21 -9 -14 -45 -11 -45 5 0
22 -27 38 -50 31 -21 -7 -20 -8 12 -36 18 -15 39 -28 45 -29 10 0 10 -6 1 -25
-13 -29 -30 -28 -38 1 -3 10 -12 20 -20 22 -8 2 -19 10 -23 18 -5 8 -12 12
-18 9 -13 -8 -11 -45 2 -45 6 0 26 -12 45 -26 32 -25 36 -26 53 -10 9 9 21 16
24 16 13 0 7 -31 -7 -36 -8 -3 -17 -13 -20 -21 -5 -13 -4 -14 9 -3 12 10 15
10 15 -4 0 -13 -7 -17 -27 -14 -20 2 -28 9 -28 23 0 16 -6 19 -32 17 -24 -2
-35 2 -45 17 -8 14 -23 21 -44 21 -19 0 -39 9 -52 23 -29 31 -28 42 4 44 40 2
47 16 27 50 -16 29 -16 32 0 57 10 14 24 26 32 26 19 0 19 -9 -2 -32 -15 -17
-15 -18 8 -19 22 -1 20 -3 -18 -14 -8 -3 -4 -13 13 -30 14 -14 27 -25 29 -25
9 0 24 104 19 126 -5 19 -2 24 14 24 10 0 31 -9 46 -21 26 -20 28 -20 46 -4
10 9 24 14 29 10 12 -7 15 15 3 30 -15 20 -70 43 -80 33 -6 -6 -12 -6 -16 0
-5 9 42 52 57 52 3 0 8 -10 10 -22 3 -17 5 -14 6 10 0 17 6 32 11 32 6 0 10 4
10 9 0 4 -12 6 -26 3 -14 -2 -37 1 -50 9 -19 10 -27 10 -33 1 -4 -6 -28 -15
-54 -18 -40 -6 -47 -4 -47 10 0 10 -11 32 -25 50 -30 39 -32 56 -6 56 23 0 37
-16 19 -22 -9 -3 -2 -17 20 -42 19 -22 32 -31 32 -21 0 8 7 15 16 15 8 0 12
-4 9 -10 -10 -17 12 -11 26 7 8 10 9 14 2 10 -6 -4 -14 -3 -18 3 -3 5 -15 10
-25 10 -23 0 -37 20 -21 29 15 10 3 41 -15 41 -8 0 -14 10 -14 26 l0 26 -19
-23 c-11 -13 -22 -21 -26 -18 -8 8 15 59 27 59 14 0 0 18 -24 31 -18 10 -19 8
-14 -18z m7 -204 c17 -61 6 -111 -22 -93 -8 4 -8 9 0 17 22 22 8 100 -19 103
-20 3 -21 4 -15 15 10 15 48 -13 56 -42z m49 -39 c0 -5 -7 -10 -15 -10 -8 0
-15 5 -15 10 0 6 7 10 15 10 8 0 15 -4 15 -10z m57 -5 c-18 -13 -17 -14 5 -17
16 -2 24 -11 26 -29 3 -24 -1 -27 -34 -34 -28 -5 -34 -9 -23 -16 11 -7 9 -9
-8 -9 -12 0 -24 4 -27 9 -8 12 -56 -10 -56 -26 0 -17 17 -25 23 -11 2 7 7 10
11 6 4 -3 2 -15 -5 -26 -10 -16 -10 -26 -1 -48 14 -30 9 -42 -10 -26 -7 5 -24
12 -38 14 -15 2 -26 11 -28 22 -3 15 1 18 22 14 22 -4 24 -3 16 13 -6 10 -15
21 -22 25 -7 4 -8 3 -4 -4 4 -7 2 -12 -3 -12 -16 0 -14 8 10 46 17 28 25 33
45 28 22 -6 24 -4 18 25 -4 18 -2 31 3 31 6 0 20 9 33 20 13 11 32 20 44 20
20 -1 20 -1 3 -15z m53 -11 c0 -16 -16 -19 -25 -4 -8 13 4 32 16 25 5 -4 9
-13 9 -21z m60 -75 c0 -5 -4 -9 -10 -9 -5 0 -10 7 -10 16 0 8 5 12 10 9 6 -3
10 -10 10 -16z m-230 -289 c0 -5 -4 -10 -9 -10 -6 0 -13 5 -16 10 -3 6 1 10 9
10 9 0 16 -4 16 -10z m59 -47 c-6 -7 -19 -13 -27 -13 -12 0 -13 3 -4 12 7 7
12 21 12 33 1 20 1 20 15 1 11 -14 12 -23 4 -33z m111 -115 c0 -16 -23 -19
-37 -5 -14 13 -13 15 11 14 14 -1 26 -5 26 -9z"/>
<path d="M255 690 c-10 -16 4 -30 31 -30 26 0 31 9 12 28 -15 15 -35 16 -43 2z"/>
<path d="M3730 909 c0 -5 5 -7 10 -4 6 3 10 8 10 11 0 2 -4 4 -10 4 -5 0 -10
-5 -10 -11z"/>
<path d="M307 903 c-4 -3 -7 -11 -7 -17 0 -6 5 -5 12 2 6 6 9 14 7 17 -3 3 -9
2 -12 -2z"/>
<path d="M1630 870 c0 -5 4 -10 9 -10 6 0 13 5 16 10 3 6 -1 10 -9 10 -9 0
-16 -4 -16 -10z"/>
<path d="M2380 865 c0 -8 5 -15 10 -15 6 0 10 7 10 15 0 8 -4 15 -10 15 -5 0
-10 -7 -10 -15z"/>
<path d="M1716 728 c-3 -13 -1 -27 4 -32 7 -7 10 1 10 22 0 37 -5 41 -14 10z"/>
<path d="M1406 731 c-4 -7 -5 -15 -2 -18 9 -9 19 4 14 18 -4 11 -6 11 -12 0z"/>
<path d="M1680 704 c0 -8 5 -12 10 -9 6 4 8 11 5 16 -9 14 -15 11 -15 -7z"/>
<path d="M2087 688 c16 -84 15 -82 72 -84 29 0 57 -6 63 -12 8 -8 15 -6 26 5
15 14 14 17 -7 35 -22 17 -26 17 -41 3 -23 -21 -52 -20 -48 3 2 9 8 16 14 16
5 -1 18 7 28 17 19 19 19 19 -2 19 -12 0 -22 -4 -22 -9 0 -5 -10 -11 -22 -13
-16 -2 -22 -9 -20 -20 4 -22 -14 -24 -22 -2 -4 10 6 26 26 45 l32 29 -42 0
-41 0 6 -32z"/>
<path d="M1540 680 c0 -17 23 -60 33 -60 5 0 7 10 3 23 -3 12 -6 25 -6 28 0
11 -30 19 -30 9z"/>
<path d="M2225 680 c-3 -5 5 -15 19 -21 14 -7 28 -20 31 -30 14 -43 -43 -82
-86 -58 -26 14 -34 6 -19 -20 11 -21 40 -29 40 -11 0 6 12 10 28 10 20 1 33
10 50 36 27 44 29 74 3 74 -10 0 -24 7 -31 15 -14 17 -26 19 -35 5z"/>
<path d="M70 653 c0 -7 5 -15 10 -18 12 -8 13 -25 0 -45 -8 -13 -11 -12 -24 5
-15 20 -15 20 -16 -2 0 -27 10 -34 37 -27 30 8 37 54 12 79 -10 11 -19 14 -19
8z"/>
<path d="M1682 648 c6 -18 28 -21 28 -4 0 9 -7 16 -16 16 -9 0 -14 -5 -12 -12z"/>
<path d="M360 591 c0 -11 -4 -23 -10 -26 -5 -3 -10 -16 -10 -28 0 -27 14 -12
28 30 7 20 7 35 1 38 -5 4 -9 -3 -9 -14z"/>
<path d="M437 579 c-3 -11 -14 -19 -25 -19 -25 0 -38 -18 -23 -33 7 -7 16 -6
28 6 10 9 28 20 41 24 22 8 22 9 3 25 -18 15 -19 15 -24 -3z"/>
<path d="M1533 593 c9 -2 25 -2 35 0 9 3 1 5 -18 5 -19 0 -27 -2 -17 -5z"/>
<path d="M2055 559 c9 -46 32 -79 53 -79 16 -1 15 -2 -1 -11 -10 -6 -21 -8
-24 -5 -11 10 -33 -16 -33 -38 0 -17 2 -18 10 -6 7 11 10 12 10 2 0 -7 -7 -21
-16 -29 -10 -11 -15 -30 -13 -57 2 -23 -4 -66 -13 -96 -20 -68 -33 -147 -18
-112 5 12 13 22 19 22 8 0 24 -37 22 -52 -2 -14 87 -9 93 5 3 9 8 7 16 -5 10
-16 39 -22 168 -31 l54 -4 -6 31 c-4 17 -11 33 -16 34 -6 2 -10 12 -10 21 0
14 8 17 40 17 31 -1 40 3 40 16 0 21 -55 35 -75 18 -8 -7 -15 -20 -15 -29 0
-9 -4 -22 -9 -30 -7 -11 -12 -6 -19 20 -6 19 -11 26 -11 17 -1 -9 -7 -21 -13
-25 -7 -4 -13 -14 -14 -20 -1 -7 -2 -19 -2 -27 -1 -8 -12 -13 -26 -12 -23 1
-23 2 -8 36 9 19 22 42 30 51 19 24 -3 29 -53 13 -34 -11 -36 -13 -13 -13 20
-1 26 -6 25 -21 -2 -34 -43 -26 -56 11 -14 40 -14 39 5 39 11 0 14 6 9 20 -5
16 -2 20 17 20 13 0 35 -7 51 -14 29 -16 37 -7 13 13 -8 7 -18 26 -21 42 -9
38 -26 38 -18 -1 5 -27 3 -30 -19 -30 -14 0 -33 -9 -43 -20 -23 -26 -35 -26
-28 0 3 12 0 20 -6 20 -25 0 0 18 34 24 39 8 46 21 14 31 -37 12 -69 -3 -75
-35 -5 -20 -11 -27 -22 -23 -8 4 -21 -2 -28 -12 -8 -11 -14 -13 -14 -6 0 7 14
30 31 51 26 32 30 42 20 54 -18 22 3 28 38 10 25 -13 38 -13 66 -4 19 6 35 13
35 15 0 2 -24 1 -52 -2 -46 -5 -51 -4 -41 8 10 12 8 17 -8 27 -25 16 -25 42 1
42 11 0 20 -7 20 -15 0 -8 7 -15 15 -15 8 0 15 -5 15 -11 0 -5 5 -7 10 -4 6 3
10 17 10 31 0 15 6 24 15 24 9 0 15 -9 15 -24 0 -28 18 -44 25 -23 10 24 -13
66 -40 73 -14 3 -25 10 -25 15 0 5 -5 9 -12 9 -6 0 -3 -9 7 -20 18 -19 17 -20
-2 -20 -23 0 -33 18 -33 58 0 32 -19 64 -26 45 -3 -7 -12 -9 -20 -6 -10 4 -14
-2 -14 -22 0 -15 -4 -24 -10 -20 -5 3 -10 19 -10 35 0 16 -5 32 -11 36 -8 4
-9 -4 -4 -27z m71 -48 c-4 -6 -14 -11 -22 -11 -12 0 -13 4 -3 21 7 14 14 18
21 11 6 -6 7 -15 4 -21z m-54 -178 c1 -12 -1 -23 -7 -25 -5 -2 -11 13 -13 32
-4 38 14 32 20 -7z m36 -120 c34 -22 42 -33 42 -60 0 -28 -8 -28 -40 -3 -20
16 -22 20 -7 20 9 0 17 5 17 11 0 6 -17 9 -41 7 -60 -4 -60 15 -1 41 1 0 15
-7 30 -16z m10 -101 c2 -7 -3 -12 -12 -12 -9 0 -16 7 -16 16 0 17 22 14 28 -4z
m237 -12 c18 -8 17 -9 -7 -9 -15 -1 -30 4 -33 9 -7 12 12 12 40 0z"/>
<path d="M2317 571 c3 -12 1 -21 -6 -21 -7 0 -11 -8 -9 -17 2 -10 -5 -19 -16
-21 -11 -2 -16 0 -12 7 8 12 -13 15 -38 5 -19 -7 -21 -24 -3 -24 13 0 61 -56
63 -75 1 -5 2 -16 3 -22 3 -30 18 -9 27 37 9 43 8 52 -5 60 -14 8 -14 11 2 27
16 17 17 16 17 -2 0 -14 3 -16 11 -8 12 12 1 41 -25 62 -12 10 -14 9 -9 -8z
m-19 -83 c16 -16 15 -28 -3 -28 -8 0 -15 2 -15 4 0 2 -3 11 -6 20 -7 19 7 21
24 4z"/>
<path d="M3375 559 c-4 -11 -4 -23 0 -27 7 -7 25 17 25 36 0 20 -18 14 -25 -9z"/>
<path d="M3340 494 c-6 -14 -10 -36 -10 -50 0 -21 -4 -23 -24 -18 -26 6 -56
-25 -56 -59 0 -16 3 -17 15 -7 12 10 15 9 15 -4 0 -22 -26 -31 -55 -18 -19 9
-26 7 -44 -12 -28 -30 -27 -46 9 -91 22 -28 30 -33 30 -20 0 11 -10 29 -22 43
l-23 24 27 -7 c21 -5 27 -3 33 14 9 31 27 26 19 -5 -5 -20 -3 -26 7 -22 8 2
19 22 25 44 19 74 32 91 65 86 17 -3 29 0 29 7 0 6 -7 11 -15 11 -20 0 -19 16
1 24 23 9 64 -4 64 -20 0 -8 -16 -24 -36 -36 -28 -17 -34 -25 -30 -43 6 -24
-8 -35 -46 -35 -17 0 -18 -2 -8 -15 10 -12 10 -21 1 -42 -14 -31 -11 -36 20
-28 34 9 77 45 61 52 -19 8 -3 23 25 23 20 0 24 -4 20 -20 -3 -13 0 -20 10
-20 9 0 13 -6 9 -15 -10 -27 12 -16 26 12 9 18 24 29 46 34 35 7 108 68 95 80
-12 10 -76 30 -81 25 -2 -3 13 -12 33 -21 45 -18 41 -30 -6 -17 -22 5 -39 18
-47 35 -15 31 -24 33 -42 12 -16 -20 -14 -22 55 -50 52 -21 56 -24 37 -34 -26
-14 -55 -14 -47 -1 3 6 -1 10 -9 10 -9 0 -16 8 -16 18 -1 15 -2 15 -15 -2 -17
-22 -20 -50 -5 -41 6 3 10 2 10 -3 0 -6 -7 -12 -15 -15 -15 -6 -55 36 -55 59
0 8 -7 11 -17 8 -13 -4 -11 0 5 12 12 9 22 22 22 30 0 7 9 18 21 24 18 10 19
14 6 28 -8 9 -18 26 -22 37 -7 18 -9 18 -12 3 -5 -20 -25 -23 -54 -8 -27 15
-24 33 3 24 20 -6 21 -5 9 10 -19 23 -30 20 -41 -10z m-123 -190 c-3 -3 -12
-4 -19 -1 -8 3 -5 6 6 6 11 1 17 -2 13 -5z m143 -44 c0 -10 -9 -24 -20 -30
-24 -13 -27 0 -8 30 16 25 28 26 28 0z"/>
<path d="M3573 508 c-32 -15 -29 -28 6 -28 34 0 68 -37 50 -55 -7 -7 -14 -4
-24 8 -11 16 -16 16 -34 5 -19 -12 -17 -14 32 -25 65 -15 88 -17 68 -4 -17 11
-6 31 19 31 52 0 14 54 -40 56 -19 1 -36 6 -38 13 -4 13 -10 13 -39 -1z"/>
<path d="M1410 496 c0 -2 7 -7 16 -10 8 -3 12 -2 9 4 -6 10 -25 14 -25 6z"/>
<path d="M3484 469 c-11 -19 10 -28 46 -20 l35 8 -28 12 c-35 14 -44 14 -53 0z"/>
<path d="M247 463 c-16 -16 -7 -34 14 -28 15 5 19 4 15 -4 -4 -6 -2 -11 4 -11
7 0 9 7 6 16 -3 9 -6 20 -6 25 0 10 -23 12 -33 2z"/>
<path d="M1360 460 c0 -5 7 -10 15 -10 18 0 20 -31 3 -49 -11 -11 -10 -13 2
-9 16 5 48 54 40 61 -12 11 -60 16 -60 7z"/>
<path d="M90 443 c0 -19 19 -55 20 -38 0 6 3 20 6 33 5 16 2 22 -10 22 -9 0
-16 -8 -16 -17z"/>
<path d="M1577 454 c-4 -4 -7 -18 -7 -30 0 -13 -5 -26 -10 -29 -8 -5 -7 -11 1
-21 10 -12 14 -10 26 13 13 26 6 82 -10 67z"/>
<path d="M1521 421 c-10 -7 -11 -13 -2 -27 9 -17 10 -17 11 -1 0 9 7 17 16 17
8 0 12 5 9 10 -8 12 -16 12 -34 1z"/>
<path d="M145 410 c-3 -5 -2 -10 4 -10 5 0 13 5 16 10 3 6 2 10 -4 10 -5 0
-13 -4 -16 -10z"/>
<path d="M528 363 c22 -9 12 -22 -20 -26 l-33 -4 36 -1 c25 -2 39 3 43 14 9
23 8 24 -16 23 -13 0 -17 -3 -10 -6z"/>
<path d="M3330 355 c-6 -8 -9 -19 -5 -25 11 -18 20 -11 20 15 0 29 1 29 -15
10z"/>
<path d="M3440 340 c0 -11 5 -20 10 -20 6 0 10 9 10 20 0 11 -4 20 -10 20 -5
0 -10 -9 -10 -20z"/>
<path d="M566 332 c-2 -4 7 -12 20 -19 26 -12 32 -5 12 15 -14 14 -25 15 -32
4z"/>
<path d="M2262 318 c6 -18 28 -21 28 -4 0 9 -7 16 -16 16 -9 0 -14 -5 -12 -12z"/>
<path d="M320 285 c-10 -13 -9 -15 9 -15 12 0 21 6 21 15 0 8 -4 15 -9 15 -5
0 -14 -7 -21 -15z"/>
<path d="M1305 290 c-3 -6 1 -13 10 -16 19 -8 30 0 20 15 -8 14 -22 14 -30 1z"/>
<path d="M1370 275 c-7 -8 -8 -15 -2 -15 5 0 15 7 22 15 7 8 8 15 2 15 -5 0
-15 -7 -22 -15z"/>
<path d="M601 264 c0 -11 3 -14 6 -6 3 7 2 16 -1 19 -3 4 -6 -2 -5 -13z"/>
<path d="M1216 265 c-3 -9 0 -15 9 -15 8 0 15 7 15 15 0 8 -4 15 -9 15 -5 0
-11 -7 -15 -15z"/>
<path d="M3091 263 c-8 -15 -12 -16 -34 -4 -20 11 -28 11 -46 0 -33 -21 -27
-40 8 -26 25 9 33 8 50 -8 12 -10 21 -26 21 -36 0 -19 -33 -35 -50 -24 -18 11
-11 25 12 25 16 0 19 3 11 11 -8 8 -17 7 -34 -2 -13 -7 -27 -12 -30 -12 -4 1
-17 -9 -29 -22 l-23 -25 21 0 c25 0 29 -18 7 -27 -9 -3 -24 2 -35 12 -13 11
-28 15 -44 11 -15 -4 -26 -1 -29 7 -3 6 -6 -3 -6 -20 -1 -25 -6 -33 -19 -33
-10 0 -23 -5 -30 -12 -17 -17 -15 3 2 27 12 17 14 55 6 100 0 6 -6 -1 -11 -14
-8 -20 -14 -23 -42 -18 -17 3 -40 8 -49 12 -13 5 -18 2 -18 -9 0 -10 9 -16 25
-16 23 0 25 -4 25 -41 0 -28 -4 -39 -12 -36 -7 2 -12 13 -11 25 2 13 -5 22
-18 25 -10 3 -24 19 -30 36 -10 29 -12 30 -62 25 -29 -3 -60 -7 -69 -9 -9 -1
-19 5 -21 14 -3 9 -5 3 -6 -13 -1 -29 -1 -29 -22 -10 -22 19 -22 19 -14 -5 5
-17 4 -22 -6 -19 -8 3 -13 15 -12 27 2 13 -1 20 -7 16 -6 -3 -10 -18 -10 -33
0 -44 -13 -56 -35 -32 -10 11 -23 20 -28 20 -6 0 0 -11 13 -24 13 -15 20 -32
17 -40 -5 -11 0 -16 14 -16 13 0 19 6 17 16 -2 10 3 19 11 22 10 3 12 0 8 -12
-4 -11 -3 -15 4 -10 6 3 8 17 5 30 -8 31 17 33 38 3 8 -12 19 -18 26 -14 8 5
11 1 8 -11 -2 -11 -15 -21 -33 -25 -28 -6 -27 -7 10 -8 26 -1 57 8 88 25 l49
25 23 -25 c20 -22 33 -26 79 -26 30 0 67 5 83 11 18 7 29 7 31 0 2 -7 12 -7
28 0 14 5 53 9 87 10 90 1 153 19 149 43 -3 17 1 18 52 12 35 -5 56 -4 56 2 0
6 19 13 42 17 23 4 51 16 62 27 12 10 22 14 24 8 4 -12 22 -3 22 11 0 14 -32
10 -54 -6 -12 -9 -33 -12 -66 -8 -41 5 -49 3 -63 -17 -20 -28 -42 -18 -26 12
9 17 7 25 -14 46 -22 22 -28 23 -42 12 -12 -10 -19 -10 -28 -1 -9 9 -6 13 12
18 17 4 19 8 9 14 -19 13 -26 11 -37 -8z m73 -59 c9 -23 8 -42 -2 -27 -4 6
-16 11 -27 10 -11 -1 -21 5 -23 16 -5 22 43 24 52 1z m-499 -44 c-3 -5 -12
-10 -20 -10 -8 0 -17 5 -20 10 -4 6 5 10 20 10 15 0 24 -4 20 -10z m393 -11
c12 -5 22 -14 22 -20 0 -7 12 -2 26 12 l26 24 -4 -24 c-4 -34 -32 -49 -58 -33
-16 10 -20 10 -20 0 0 -7 -7 -4 -16 7 -8 11 -20 20 -27 20 -6 0 -13 8 -15 18
-4 20 3 19 66 -4z m-263 -15 c20 -15 20 -16 -4 -12 -14 2 -26 9 -29 16 -5 16
9 15 33 -4z m-145 2 c0 -8 -63 -36 -68 -31 -10 10 22 35 44 35 13 0 24 -2 24
-4z m288 -33 c2 -9 -7 -13 -27 -13 -30 0 -39 9 -24 24 11 10 46 3 51 -11z m87
-3 c4 -6 -7 -10 -27 -9 -27 0 -30 2 -13 9 27 12 33 12 40 0z m-244 -23 c-13
-13 -26 -3 -16 12 3 6 11 8 17 5 6 -4 6 -10 -1 -17z"/>
<path d="M1258 241 c-3 -24 -6 -26 -50 -24 -27 2 -48 0 -48 -3 0 -3 9 -17 20
-31 11 -14 17 -29 14 -34 -7 -12 -54 -11 -54 1 0 6 5 10 11 10 14 0 2 18 -22
30 -14 8 -19 8 -17 -2 2 -6 -10 -14 -27 -18 -20 -3 -26 -8 -17 -13 17 -11 15
-27 -3 -27 -8 0 -15 4 -15 9 0 5 -11 11 -25 13 -30 6 -30 5 -8 -29 17 -26 17
-26 -6 -13 -13 6 -21 7 -17 2 3 -6 0 -13 -6 -16 -9 -3 -8 -8 5 -16 9 -6 15
-15 12 -21 -4 -5 1 -9 9 -9 8 0 18 5 22 11 4 6 9 7 13 2 4 -6 24 -5 51 0 40 9
42 11 20 17 -18 5 -21 9 -10 13 37 15 93 25 105 20 8 -2 27 4 42 14 15 11 49
27 76 37 57 21 60 28 8 20 -34 -5 -41 -3 -51 16 -9 16 -9 25 -1 33 16 16 14
24 -8 30 -16 4 -21 -1 -23 -22z m14 -47 c7 -7 -45 -61 -54 -56 -5 2 -8 14 -8
27 0 17 7 25 23 28 12 2 25 5 28 6 3 0 8 -1 11 -5z m-192 -115 c0 -5 -4 -9
-10 -9 -5 0 -10 7 -10 16 0 8 5 12 10 9 6 -3 10 -10 10 -16z"/>
<path d="M1370 230 c0 -11 7 -20 15 -20 13 0 14 4 5 20 -6 11 -13 20 -15 20
-3 0 -5 -9 -5 -20z"/>
<path d="M3240 235 c0 -8 6 -15 14 -15 7 0 19 7 26 15 11 13 8 15 -14 15 -16
0 -26 -5 -26 -15z"/>
<path d="M2900 224 c0 -9 9 -18 20 -21 20 -5 20 -7 4 -24 -23 -26 -9 -37 16
-14 24 22 26 60 4 69 -27 10 -44 7 -44 -10z"/>
<path d="M3410 225 c0 -16 16 -20 24 -6 3 5 -1 11 -9 15 -9 3 -15 0 -15 -9z"/>
<path d="M1310 220 c0 -5 12 -10 26 -10 14 0 23 4 19 10 -3 6 -15 10 -26 10
-10 0 -19 -4 -19 -10z"/>
<path d="M2220 220 c0 -5 4 -10 9 -10 6 0 13 5 16 10 3 6 -1 10 -9 10 -9 0
-16 -4 -16 -10z"/>
<path d="M2326 221 c-4 -7 -5 -15 -2 -18 9 -9 19 4 14 18 -4 11 -6 11 -12 0z"/>
<path d="M2857 224 c-12 -13 -8 -34 8 -34 9 0 12 -6 9 -15 -4 -8 -1 -15 5 -15
6 0 11 8 11 18 0 23 -23 55 -33 46z"/>
<path d="M671 211 c-8 -5 -6 -13 9 -26 16 -14 24 -16 42 -7 18 8 19 11 6 11
-10 1 -18 5 -18 10 0 13 -25 20 -39 12z"/>
<path d="M770 180 c20 -13 33 -13 25 0 -3 6 -14 10 -23 10 -15 0 -15 -2 -2
-10z"/>
<path d="M633 163 c4 -6 1 -14 -5 -16 -10 -4 -9 -8 2 -16 18 -13 40 -14 40 -3
0 5 -10 17 -22 28 -12 10 -18 14 -15 7z"/>
<path d="M860 159 c0 -5 10 -9 23 -9 20 -1 20 -2 4 -11 -12 -7 -28 -7 -53 1
-19 7 -38 9 -41 6 -4 -3 -1 -6 5 -6 7 0 12 -4 12 -10 0 -15 -26 -12 -40 5 -7
8 -25 15 -41 15 -21 0 -28 -5 -31 -22 -2 -13 -8 -23 -15 -23 -6 0 -15 -3 -19
-8 -4 -4 -15 -7 -24 -7 -10 0 -22 -6 -28 -13 -8 -10 -6 -13 9 -13 10 0 19 4
19 9 0 5 7 4 15 -3 13 -10 19 -10 35 5 12 11 20 13 20 6 0 -9 5 -9 21 -1 11 7
22 10 23 8 1 -2 7 -14 14 -28 11 -22 11 -22 6 -2 -7 27 6 28 34 2 21 -20 69
-29 58 -11 -3 5 1 14 9 21 25 20 17 29 -20 23 -28 -4 -35 -2 -35 11 0 17 16
22 22 6 2 -8 42 0 76 16 1 1 0 8 -3 17 -7 16 -55 30 -55 16z"/>
<path d="M934 132 c-4 -15 -14 -35 -22 -44 -23 -27 -1 -20 34 10 29 26 30 28
12 44 -17 17 -18 16 -24 -10z"/>
<path d="M2630 75 c-10 -12 -10 -15 2 -15 8 0 15 7 15 15 0 8 -1 15 -2 15 -2
0 -8 -7 -15 -15z"/>
<path d="M947 73 c-12 -11 -8 -23 8 -23 8 0 15 7 15 15 0 16 -12 20 -23 8z"/>
</g>
</svg>
